<!--?xml version="1.0" encoding="utf-8"?-->
<!-- Generator: Adobe Illustrator 18.1.1, SVG Export Plug-In . SVG Version: 6.00 Build 0)  -->

<svg version="1.1" id="_x32_" xmlns="http://www.w3.org/2000/svg" xmlns:xlink="http://www.w3.org/1999/xlink" x="0px" y="0px" viewBox="0 0 512 512" style="width: 256px; height: 256px; opacity: 1;" xml:space="preserve">
<style type="text/css">
	.st0{fill:#4B4B4B;}
</style>
<g>
	<path class="st0" d="M332.139,245.212c0.862-5.635,1.321-11.408,1.369-17.308l-13.394-13.397l11.284-11.284
		c-0.888-5.084-2.036-10.161-3.47-15.217l-17.154,17.161l-34.986-34.99l29.964-29.956c-2.44-3.706-5.033-7.344-7.755-10.925
		l-31.552,31.541l-37.227-37.227l32.088-32.084c-3.456-2.847-6.944-5.605-10.481-8.202l-30.947,30.947l-35.73-35.731l20.752-20.748
		c-4.674-1.82-9.333-3.375-13.973-4.71L174.807,69.2l-21.608-21.608c-5.876,0.044-11.636,0.521-17.249,1.431l29.513,29.516
		l-39.238,39.238L83.18,74.74c-1.456,1.321-2.905,2.67-4.332,4.094c-1.732,1.738-3.379,3.507-4.964,5.29l43.002,43.001
		l-39.238,39.238l-28.826-28.834c-0.848,5.701-1.288,11.512-1.225,17.462l20.708,20.705l-15.231,15.231
		c1.335,4.652,2.905,9.318,4.711,13.977l19.864-19.861l35.727,35.731l-30.03,30.022c2.605,3.551,5.319,7.058,8.173,10.514
		l31.2-31.197l37.228,37.228l-30.661,30.661c3.588,2.722,7.23,5.312,10.936,7.747l29.065-29.068l34.986,34.982l-16.266,16.266
		c5.081,1.446,10.154,2.605,15.194,3.492l10.411-10.411l12.51,12.509c5.95,0.029,11.801-0.359,17.531-1.159l-20.697-20.698
		l39.238-39.237l35.782,35.789c1.827-1.577,3.617-3.198,5.338-4.915c1.409-1.416,2.77-2.862,4.087-4.344l-35.866-35.862
		l39.241-39.245L332.139,245.212z M257.105,170.178l-39.238,39.245l-37.231-37.234l39.241-39.23L257.105,170.178z M174.807,87.887
		l35.727,35.724l-39.238,39.237l-35.73-35.724L174.807,87.887z M86.988,175.695l39.237-39.238l35.731,35.731l-39.238,39.237
		L86.988,175.695z M132.058,220.766l39.238-39.23l37.228,37.227L169.289,258L132.058,220.766z M213.615,302.329l-34.986-34.989
		l39.238-39.237l34.986,34.989L213.615,302.329z M262.193,253.744l-34.986-34.982l39.238-39.238l34.986,34.983L262.193,253.744z" style="fill: rgb(75, 75, 75);"></path>
	<path class="st0" d="M505.777,461.276c-2.105-2.106-11.115-10.917-21.507-21.093c-14.476-14.168-23.754-23.096-29.091-28.431
		c-1.009-1.013-2.007-2.025-2.986-3.038c-17.96-18.496-33.955-43.155-46.226-71.3c-13.5-30.918-21.992-64.418-25.239-99.584
		l-0.014-0.198l0.01-0.205c1.276-20.719-1.14-41.894-7.176-62.928c-10.448-36.392-31.416-71.073-60.635-100.295
		c-19.872-19.876-41.549-36.207-64.425-48.563c-17.22-9.288-34.88-16.163-52.496-20.44c-27.671-6.706-54.502-6.926-79.763-0.66
		c-26.358,6.508-50.874,20.528-70.892,40.544l-0.205,0.206C27.053,63.367,14.206,84.351,6.939,107.66
		c-5.214,16.67-7.495,34.366-6.79,52.606c1.023,26.339,8.118,53.134,21.09,79.642c12.733,26.023,30.558,50.588,52.965,73.001
		c38.896,38.886,87.11,62.812,135.773,67.382c9.277,0.865,18.727,0.998,28.086,0.382h0.301c36.677,1.775,70.76,9.816,101.314,23.94
		c25.335,11.717,48.563,27.726,69.037,47.58c1.02,0.99,2.04,1.996,3.056,3.016c5.337,5.333,14.266,14.607,28.437,29.083
		c10.165,10.396,18.985,19.406,21.094,21.512c4.179,4.182,15.422,12.377,29.506-1.71l11.42-11.416l-0.025-0.022l1.87-1.872
		C518.158,476.698,509.96,465.458,505.777,461.276z M183.978,340.525c-30.808-8.834-60.364-26.779-85.482-51.908
		c-17.517-17.506-31.853-36.501-42.624-56.458c-7.891-14.615-13.706-29.509-17.278-44.263c-5.389-22.238-5.628-43.574-0.712-63.406
		c5.147-20.609,15.789-39.112,31.618-54.982l0.004-0.008c14.142-14.116,30.43-24.138,48.409-29.781
		c12.909-4.028,26.713-5.795,41.028-5.246c21.516,0.822,43.676,6.75,65.871,17.609c22.612,11.064,44.08,26.67,63.812,46.413
		c33.273,33.258,53.681,73.985,57.466,114.676c1.797,19.223-0.154,37.572-5.792,54.55c-5.72,17.161-15.022,32.282-27.653,44.924
		c-12.641,12.627-27.755,21.923-44.927,27.653C242.104,348.816,213.15,348.897,183.978,340.525z M391.52,394.371
		c-11.93-7.924-24.523-14.974-37.425-20.939c-11.981-5.547-24.641-10.338-37.624-14.241l-5.294-1.592l4.567-3.125
		c7.641-5.217,14.762-11.108,21.218-17.565c7.022-7.022,13.445-14.96,19.094-23.595l3.092-4.718l1.651,5.4
		c3.903,12.81,8.511,25.312,13.684,37.161c6.104,13.962,13.085,27.293,20.745,39.619L391.52,394.371z" style="fill: rgb(75, 75, 75);"></path>
</g>
</svg>
