<svg xmlns="http://www.w3.org/2000/svg" viewBox="0 -4 604.079 398.138" fill="white">
  <path id="chuo_univ-logo" d="M599.5,189.208c-33.89.924-67.732,0-101.622.42a13.7,13.7,0,0,1-10.477-4.5C384.42,75.364,202.741,83.2,108.007,201.844c78.725,97.1,218.534,122.088,322.82,60.9A272.141,272.141,0,0,0,484.158,221.5c5.136-5.1,10.273-7.5,17.473-7.5,32.5.492,65.044.18,97.542.216,1.728,5.124.54,8.868-1.656,12.66A329.275,329.275,0,0,1,493.6,337.456a336.949,336.949,0,0,1-124.4,50.461C257.174,411.406,110.426,366.088,36.14,266.082A239.956,239.956,0,0,1,0,196.252C101.814-12.26,387.936-50.972,543.934,106.876,559.595,123.6,600.709,166,599.5,189.208Z" transform="translate(2.15 -7.885)"/>
</svg>
