<?xml version="1.0" encoding="utf-8"?>
<!-- Generator: Adobe Illustrator 24.2.1, SVG Export Plug-In . SVG Version: 6.00 Build 0)  -->
<svg version="1.1" id="レイヤー_1" xmlns="http://www.w3.org/2000/svg" xmlns:xlink="http://www.w3.org/1999/xlink" x="0px"
	 y="0px" viewBox="0 0 1280 1024" style="enable-background:new 0 0 1280 1024;" xml:space="preserve">
<style type="text/css">
	.st0{fill:#FFFFFF;}
	.st1{font-family:'hkgyokk';}
	.st2{font-size:165px;}
	.st3{font-family:'ArialMT';}
	.st4{font-size:12px;}
</style>
<path class="st0" d="M387.1,408.6c-0.5-3.1-1-6.2-1.9-9.2c-0.2-0.6-0.4-1.2-0.7-1.8c-0.2,1.1-1.8,1.8-2.4,0.5c0-0.1-0.1-0.2-0.1-0.3
	c-0.5,0-0.9-0.4-1.1-1c0-0.1-0.1-0.2-0.1-0.4c-0.2-0.2-0.3-0.4-0.4-0.7c0,0,0,0,0,0c-0.2-0.2-0.5-0.5-0.6-0.8
	c-0.3-0.8-0.6-1.5-1-2.3c0,0-0.1-0.1-0.1-0.1c-0.2-0.3-0.2-0.7-0.1-1c-0.1-0.3-0.1-0.6,0-0.9c-0.2-0.7,0.3-1.6,0.9-1.7
	c0.5-0.2,1,0.1,1.4,0.5c-0.6-1.5-1.6-2.4-3.4-2.7c-0.2,0-0.4-0.1-0.6-0.2c-1.4-0.6-2.4,0-3.4,1c-1.1,1.2-2.2,2.4-3.6,3.1
	c-2.4,1.3-4.7,2.6-5.7,5.6c-0.1,0.4-0.8,0.5-1.1,0.8c-1.1,1-2.2,2-3.3,3.1c-0.1,0.1,0,0.5,0,0.7c0.2,1.8,0.3,3.5,0.5,5.3
	c0,0.4,0.1,0.9,0.4,1.2c1,1,1,2.3,1.1,3.6c0.1,1.2,0.4,2.5,0.8,3.6c0.6,1.8,1.8,2.4,3.4,1.7c1.7-0.8,3.2-1.9,4.8-3
	c1.8-1.2,3.5-2.7,5.9-2.2c0.3,0.1,0.6,0.1,0.9,0.2c0.1-0.1,0.1-0.1,0.2-0.2c0.1,0,0.2,0,0.3,0c0.2-0.1,0.4,0.2,0.3,0.4
	c0.2,0,0.5,0,0.7,0c0.2-0.1,0.5-0.1,0.8-0.2c0.1,0,0.2,0,0.3,0.2c0.2,0,0.4,0,0.5-0.1c0,0-0.1-0.1-0.1-0.2v-0.8
	c-0.5-0.3-1-0.6-1.6-0.6c-0.1,0-0.2-0.1-0.2-0.2c-0.1,0-0.2,0-0.3,0c-0.7,0-1.4,0-2,0.4c-0.3,0.2-0.6-0.3-0.3-0.5
	c0.4-0.2,0.8-0.4,1.2-0.4c-0.3,0-0.3-0.6,0-0.6c0,0,0.1,0,0.1,0c0,0,0,0,0-0.1c0-0.2,0.2-0.2,0.3-0.2c0.7,0.1,1.4,0,2,0.2
	c0.4,0.1,0.8,0.5,1.1,0.8c0-0.1,0.1-0.2,0.2-0.2c0.1,0,0.3,0.1,0.3,0.3c0,0.1,0,0.2,0,0.3c0.2,0.1,0.3,0.1,0.5,0.2c0,0,0,0,0,0
	c0.1,0,0.2,0,0.2,0.1c0.1,0.1,0.3,0.1,0.4,0.2s0.2,0.2,0.2,0.4c0,0.1-0.2,0.3-0.3,0.2c-0.1,0-0.2-0.1-0.3-0.1c0,0.1-0.1,0.2-0.1,0.4
	c0,0.1-0.1,0.1-0.1,0.1c0,0,0,0.1,0,0.1c0.2,0,0.3,0.2,0.3,0.4h0.5c0.2,0,0.3,0.2,0.2,0.4c0.1,0,0.3,0,0.4,0c0.3,0,0.7-0.1,0.9,0.1
	c0.2,0.1,0.4,0.3,0.6,0.5c0-0.3,0-0.6,0.2-0.9c0.2-0.3,0.5-0.6,0.8-0.7c0.3-0.1,0.7,0,1,0.1c0.2,0.2,0.5,0.5,0.6,0.8
	C387.2,410.8,387.3,409.7,387.1,408.6z"/>
<path class="st0" d="M332.7,427.9c0.9-0.8,1.7-1.7,2.6-2.5c-0.7-1.3-1.4-2.6-2.1-3.9c-0.4-0.7-0.8-1.4-1.2-2.1c0-0.1-0.2,0-0.4-0.1
	c-0.7,1.3-2.7,1.7-2.1,3.9c-1.6-1-3.2,0.1-3.4,2.3c-0.1,2.3,1,4.1,2.1,6c-1.1,1-2.4,2.1-3.8,3.4c-0.5-0.9-1.4-1.8-1.6-2.9
	c-0.4-2.8-1.8-4.9-3.2-7.1c-1.4-2.1-1-2.6,1-3.9c2.1-1.4,4-3.3,5.9-5.1c4.5-4.6,9-9.4,13.4-14c0.6-0.6,1.4-1.1,2.2-1.8
	c2.9,4.8,5.8,9.5,8.8,14.4c-0.4,0.5-0.8,1.1-1.3,1.7c-0.8-0.4-2.9,0.9-3.4,1.9c-0.4,0.8-1,1.6-1.5,2.3c-0.1,0.1-0.2,0.3-0.3,0.2
	c-1.5-0.7-2,0.4-2.4,1.7c-0.1,0.3-0.6,0.6-1,0.7c-1.7,0.2-2.8,1.6-4.1,2.6c-1.1,0.8-2.2,1.5-3.3,2.2
	C333.5,428,333,427.9,332.7,427.9L332.7,427.9z M340.6,419c-0.1,0.1-0.2,0.2-0.4,0.4c0.7,0.3,1.3,1.4,2.2,0.3c0.9-1,0.6-1.9-0.1-2.8
	c-0.3-0.3-0.5-0.8-0.9-1.4c1,0.3,1.8,0.5,2.6,0.6c0.5,0.1,1.2,0.4,1.3-0.6c0-0.8,0-1.6-1-1.6c-0.6,0-1.3-0.2-2-0.4
	c0.1-1.1,0.1-2.1,0.2-3.1c-2-0.4-1.1,1.9-2,2.6c-0.4-0.5-0.7-0.9-1.1-1.4c-1,0.4-1.3,1-0.8,2.1c0.6,1.2,1.2,2.4,1.7,3.6
	C340.6,417.7,340.5,418.4,340.6,419z M338.8,409.2c-0.7-1-1.3-1.8-2-2.8c-1,1.1-2,2.2-2.9,3.3c0.1,0.1,0.1,0.2,0.2,0.4
	c0.5-0.1,0.9-0.3,1.7-0.5c-0.5,0.8-0.8,1.3-0.9,1.6c0.6,0.8,1,1.4,1.6,2.1c1-1,2.1-2.1,3.2-3.3c-0.1-0.1-0.2-0.2-0.3-0.4
	c-0.3,0.1-0.6,0.2-1,0.4C338.6,409.7,338.7,409.4,338.8,409.2z M329,421c0.5-1.3,0.9-2.4,1.4-3.6c-0.5,0.3-0.9,0.5-1.4,0.9
	c0.3-0.8,0.8-1.6,0.7-1.8c-0.4-0.5-1-0.6-1.9-1.1c1.1,1.7-2,0.6-0.7,2.3c-0.4,0-0.8-0.1-1.2-0.1c0.5,2.4,0.5,2.4,2.1,1.7
	c-0.4,0.5-0.7,1-1,1.5c0.1,0.1,0.2,0.2,0.2,0.2c0.4-0.3,0.8-0.6,1.3-0.9C328.6,420.3,328.7,420.6,329,421z M339.5,421
	c0.3-2.3-0.3-4.4-0.9-6.6c-2.3,1.5-2.7,2.1-2.1,3.2c0.3-0.2,0.6-0.4,1.1-0.7c0,1,0.2,1.7,0.1,2.5C337.5,420.9,338.2,421.1,339.5,421
	z"/>
<path class="st0" d="M400.2,418.7c0-0.1,0,0.1,0.1,0.5c0.2-0.2,0.4-0.4,0.6-0.5c0.1,0.2,0.2,0.5,0.3,0.7c0.3-0.2,0.7-0.6,0.8-0.5
	c0.8,0.5,2.3,0,2.4,1.8c0.1,1.6,0.2,3.3,0.2,4.9c-0.1,1.5-0.5,3-0.7,4.5c-0.3,2.3-1.9,3.8-3,5.7c0,0.1-0.2,0.1-0.5,0.2
	c0-0.5,0.1-1,0.1-1.4c-0.1,0-0.1,0-0.2-0.1c-0.9,1.6-1.7,3.3-2.6,4.9c0.1,0.1,0.3,0.2,0.4,0.4c0.1-0.4,0.2-0.8,0.4-1.2
	c0.2,0.1,0.4,0.3,0.5,0.4c-0.7,1.5-1.4,3-2.1,4.5c-0.1,0-0.3-0.1-0.4-0.1c0.1-0.6,0.2-1.2,0.3-1.8c0,0-0.1-0.1-0.2-0.1
	c-0.4,0.7-0.8,1.5-1.2,2.2c-0.1,0-0.2-0.1-0.3-0.1c0.4-0.9,0.8-1.8,1.2-2.9c-0.7,0.6-1.4,1.2-2.1,1.8c-0.1-0.1-0.2-0.2-0.3-0.2
	c0.3-0.8,0.5-1.6,0.8-2.4c-0.1,0-0.1-0.1-0.2-0.1c-0.4,0.5-0.7,1-1.2,1.7c-0.1-0.8-0.2-1.3-0.2-1.9c0-0.1,0-0.3,0-0.4
	c-2.1-1.7-1.9-4.4-2.2-6.6c-0.6-4.2-0.5-8.5-0.7-12.8c0-1.7,0.3-2,1.8-1.7c1.1,0.2,2.2,0.6,3.3,0.9c0.4,0.1,0.8,0,1.3,0
	c0.7,0,1.3,0.1,2,0.1C399.1,418.9,399.6,418.8,400.2,418.7z"/>
<path class="st0" d="M389.6,407.4c-0.9-1,0-2.5,1-2.5c0.2-0.1,0.5-0.1,0.7,0c-0.6-0.4-1.1-0.8-1.8-1.2c-0.7-0.4-1.2,0.1-1,0.9
	c0.3,1.3,0.7,2.7,1,4c0-0.1,0.1-0.2,0.1-0.3c0.1-0.1,0.2-0.3,0.3-0.4C389.9,407.8,389.8,407.6,389.6,407.4z"/>
<path class="st0" d="M391.7,412.1c-0.3,0.1-0.6,0-0.9-0.1c-0.2,0.9-0.4,1.7-0.6,2.5c0.2,0.1,0.3,0.1,0.5,0.2c0.5-1,1-1.9,1.5-2.9
	c0,0-0.1,0-0.1,0C392,412,391.8,412,391.7,412.1z"/>
<path class="st0" d="M377.6,484.6c2,0.9,4.4,1.2,5.8,3.3C381.4,486.9,379,486.6,377.6,484.6z"/>
<path class="st0" d="M378.5,482.4c1.9,1.3,4.3,1.5,5.9,3.4c0,0.1-0.1,0.2-0.2,0.4c-2-1-4.1-1.9-6.1-2.9
	C378.3,483,378.4,482.7,378.5,482.4z"/>
<path class="st0" d="M382,489.7c-1.3-0.5-2.8-0.6-3.5-2.2C379.8,487.9,381.2,488.2,382,489.7z"/>
<path class="st0" d="M340.5,421c-0.3,0.5-0.6,0.9-0.9,1.3c-0.3-0.4-0.6-0.8-0.8-1.2c-0.6-1-1.2-2-1.9-3.3
	C338.5,418.7,338.3,421.5,340.5,421L340.5,421z"/>
<path class="st0" d="M50.1,830.5c0.8-1.3,1.5-2.6,2.5-4.3c0.9,2.6-1.1,3.4-1.8,4.7C50.5,830.8,50.3,830.7,50.1,830.5z"/>
<path class="st0" d="M334.9,422c1.4,0.6,2.2,1,3.2,1.3c-0.6,0.3-1.1,0.6-1.8,1C335.8,423.7,335.4,423.1,334.9,422z"/>
<path class="st0" d="M339.7,413.9c-0.6,0.6-1,0.9-1.5,1.5c0-1.1,0-1.9,0-2.7c0.1-0.1,0.3-0.2,0.4-0.3
	C338.9,412.9,339.2,413.3,339.7,413.9z"/>
<path d="M353.5,411.4c1.3-1.3-0.6-3.2-1.9-2.1c-0.2,0.2-0.4,0.4-0.7,0.6c-0.2-0.1-0.5-0.1-0.7,0c-0.1,0-0.3,0.1-0.4,0.1
	c0.1-0.1,0.1-0.2,0.2-0.4c0.5-1-0.2-2.3-1.2-2.2c0-0.2-0.1-0.4-0.2-0.5c1.2-1.1,2.4-2.2,3.6-3.3c1.3-1.2-0.6-3.2-1.9-2.1
	c-1,0.9-2.1,1.8-3.1,2.8c-0.2-0.4-0.5-0.7-1-0.8c0.7-1.3-0.4-2.8-1.7-2.1c-0.1,0-0.1,0.1-0.2,0.1c0-0.4-0.1-0.7-0.3-1
	c0.4-1.2-0.7-2.7-1.8-1.8c-4.5,3.8-9,7.4-13.4,11.4c-2,1.9-3.7,4-5.6,6c-0.2,0.3-0.5,0.5-0.7,0.7c-1.7,0.5-3.4,1.1-5,1.8
	c-1.2,0.5-1.1,2.3-0.2,2.8c0,0,0,0,0,0c-0.6,0.8-0.4,2.2,0.5,2.5c-0.8,0.4-1.6,0.8-2.4,1.1l0,0c-0.1,0-0.2,0.1-0.3,0.1
	c-1.4,0.6-0.4,3.3,1,2.7c0.4-0.2,0.8-0.4,1.1-0.5c1-0.4,1.9-0.8,2.9-1.2c0,0.1,0,0.3,0.1,0.4c0.9,3,2,5.9,3.5,8.6
	c0.5,0.8,1.6,1,2.2,0.2c0.7,0.5,1.9,0.4,2.1-0.7c0.1-0.5,0.2-1.1,0.3-1.7c0.1-0.1,0.2-0.4,0.3-0.6c0.2-0.5,0.3-1,0.5-1.5
	c0,0,0.1,0,0.1,0c0,0.1,0,0.1,0,0.2c-0.2,1.3,1.3,2.6,2.2,1.4c0.9-1.1,1.6-2.4,2.1-3.7c0.1,0,0.2-0.1,0.4-0.2
	c0.1-0.1,0.2-0.2,0.3-0.2c0.3,0.1,0.7,0.1,1.1-0.1c0.7-0.5,1.7-1.1,2.6-1.7c0.4,0.5,1,0.8,1.6,0.3c0.5-0.4,1.1-0.9,1.5-1.5
	c2-0.4,3.9-1.1,5.8-2.2c1-0.6,0.8-1.9,0-2.4c2.2-1,4.2-2.5,6-4.2c1-1,0-2.9-1.3-2.4c-0.2,0.1-0.4,0.1-0.6,0.2
	c0.1-0.1,0.1-0.3,0.2-0.4C351.9,413,352.7,412.2,353.5,411.4z"/>
<path d="M407,422.5c-0.3-1-1.2-1.2-1.8-0.9c0-1.4,0-2.7,0-4c0-1.2-1.1-1.6-1.8-1.3c-0.4-0.6-1-1.1-2-1.1c-0.1,0-0.2,0-0.3,0v-0.6
	c0-0.6-0.3-1-0.7-1.3c-0.2-0.6-0.5-1.2-0.8-1.7c-0.4-0.7-1.5-1.1-2.1-0.3c-0.5,0.7-0.8,1.4-1.1,2.1c-0.5-1.1-2.2-1.1-2.5,0.2
	c-0.1,0.4-0.2,0.9-0.3,1.3l-0.4-1.8c-0.2-1.3-1.7-1.3-2.3-0.4c-0.2-0.6-0.6-1-1.2-1c-0.7,0-1.4,0.6-1.3,1.5c0,0.5,0.1,1,0.4,1.5
	c0.1,0.2,0.2,0.4,0.4,0.6c0,0,0,0.1,0.1,0.1c0.3,0.5,0.7,0.7,1.2,0.7c0,0.5,0.1,0.9,0.3,1.3c-0.1,0.1-0.3,0.3-0.4,0.5
	c-0.7,1.1-1,2.5-0.9,3.9c0,1,0,2,0,3c0,2.1,0,4.2,0.2,6.3c0.2,2.9,0.5,5.9,1.9,8.5c0.3,0.6,0.8,1.4,1.4,2c0.2,0.5,0.5,0.9,0.8,1.3
	c0.1,0.1,0.2,0.3,0.3,0.4c-0.1,0.1-0.1,0.2-0.2,0.4c-0.2,0.7,0.2,1.7,0.9,1.8c0,0,0,0,0.1,0c0.4,0.4,1,0.5,1.5,0.2
	c0.5,0.1,0.9,0.1,1.4,0.1c0.3,0,0.6-0.1,0.9-0.4c0.5-0.2,0.9-0.8,0.9-1.4c0-0.6-0.3-1-0.8-1.3c0.1-0.2,0.3-0.4,0.4-0.6
	c0.3-0.2,0.5-0.4,0.6-0.8c0-0.1,0.1-0.3,0.1-0.4c1.1-1.8,2.1-3.6,3-5.5c0.6-0.1,1.1-0.6,1.1-1.4c0-0.2,0-0.4,0-0.5
	c0.3,0.8,1.4,1,2,0.5c0-0.1,0-0.2,0-0.3c0-0.1,0-0.2,0.1-0.3c-0.2-0.6,0-1.2,0.5-1.6C406.8,428.5,408,425.6,407,422.5z"/>
<path d="M383.5,484c-0.1-0.7-0.3-1.4-0.5-2c-0.3-0.9-1.2-1.4-2-0.9c-0.4,0.2-0.6,0.5-0.9,0.9c-0.2-0.4-0.5-0.8-0.7-1.2
	c-0.9-1.4-3-0.2-2.4,1.2c-0.4,0.3-0.6,0.8-0.5,1.5c0.5,2.5,0.8,5.4,1.8,7.6c0.4,0.9,1.5,0.9,2.1,0.2c0.5,0.2,1,0.2,1.5-0.3
	c0,0.4,0.1,0.9,0.2,1.3c0.2,1.6,2.1,1.2,2.6,0c0.8-2.4,1.2-4.9,1.3-7.4C385.9,483.5,384.2,483.2,383.5,484z"/>
<path d="M406.1,415.7c-1.1-1.9-2-4-3.4-5.7c-1.4-1.6-3.1-2.8-4.8-4c-0.9-0.6-1.8-1-2.7-1.5c-0.1,0-0.1,0-0.2,0c0,0-0.1,0-0.1,0
	c-0.1-0.1-0.3-0.1-0.5-0.2c0,0-0.1,0-0.1,0c-1.6-0.8-3.3-1.6-4.3-3.2c-0.1-0.1-0.2-0.2-0.3-0.2c-0.3-0.5-0.7-0.9-1.1-1.4
	c0,0,0-0.1-0.1-0.1c0-0.2-0.1-0.3-0.1-0.5c-0.3-0.7-0.6-1.4-0.9-2.1c0-0.1-0.1-0.2-0.2-0.3c-0.1-0.8-0.2-1.6-0.4-2.4
	c-0.2-0.3-0.3-0.6-0.5-0.9c0,0,0,0,0-0.1c-0.3-0.5-0.4-1-0.6-1.5c0,0,0,0-0.1-0.1c0,0,0-0.1,0-0.1c-0.1-0.1-0.1-0.3-0.2-0.4
	c-0.2-0.5-0.4-1-0.4-1.5c0-0.1,0-0.1,0-0.2c-0.2-0.6-0.5-1.1-0.8-1.7c-0.2-0.4-0.2-0.7-0.2-1c-0.1-0.4-0.2-0.7-0.2-1.1
	c0-0.2,0-0.4-0.1-0.6c0.1-0.3,0.3-0.7,0.5-1c-0.2,0-0.3,0-0.4,0c0.4-0.7,0.2-1.5-0.1-2.5c0.1-0.8-0.1-1.5-0.6-2.3
	c-0.2-0.3-0.4-0.5-0.7-0.7c0-0.4-0.1-0.8-0.4-1.1c-0.3-0.3-0.5-0.5-0.8-0.7c-0.1-0.1-0.1-0.2-0.2-0.4c-0.1-0.1-0.2-0.3-0.3-0.4
	c0-0.3-0.1-0.5-0.1-0.8c-0.7-0.7-1.3-0.8-1.8-0.5c-0.2-0.3-0.4-0.5-0.7-0.6c-0.6-0.2-1.2-0.4-1.8-0.6c0,0,0,0,0,0
	c-1.1-0.9-1.8-0.7-3,0.9c0,0,0,0,0.1,0c-0.1,0-0.1,0.1-0.2,0.2c-1.2,1.2-3.1,1.6-4.6,2.3h0c-2.5,0.2-4.8,1.3-6.9,2.9
	c-1.3,1-2.6,2.2-3.6,3.6c-0.6,0.8-1.2,1.2-1.9,1.1c-3.3-0.7-5.9,1.2-8.7,2.4c-0.9,0.4-2,0.8-3,0.8c-2.2-0.1-4.4-0.5-6.5-0.9
	c-0.3-0.1-0.9-0.7-0.9-1c0.3-3-0.9-5.3-2.1-7.8c-1-1.8-1.2-3.9,0.6-5.5c0.7-0.6,1.2-1.6,1.7-2.4c1.2-1.9,1.4-4,0.4-6
	c-1.2-2.4-2.9-4.1-5.5-4.1c-1,0-2,0.8-2.9,1.4c-0.8,0.5-1.4,1.4-2,2.1c-0.9,1-1.9,1.4-3.1,0.9c-0.5-0.2-1.1-0.3-1.6-0.6
	c-2.9-1.4-5.3-0.7-7.6,1.6c-2,2-4,3.9-4.5,7c-0.1,0.6-0.4,1.2-0.7,1.8c-3,5.5-1.2,10.5,1.3,15.4c0.1,0.3,0.5,0.5,0.8,0.7
	c1.1,0.9,2.2,1.7,3.2,2.7c0.8,0.8,1.4,1.9,2.1,2.7c0.7,0.8,1.5,1.5,2.2,2.2c0.6,0.5,0.4,1,0,1.6c-0.6,1-1.1,2.1-1.7,3.2
	c-0.3,0.5-0.4,1.1-0.8,1.5c-2.3,2.3-3.1,5.3-3.8,8.5c-0.6,2.5-1.1,5.1-1.8,7.6c-0.9,3.5-0.4,6.5,1.9,9.2c0.8,0.9,1.7,1.7,2.2,2.7
	c1.5,2.5,3.6,4.2,5.6,6c1.7,1.5,3.3,3.3,4.7,5.2c0.7,1,1.3,2.5,1.3,3.7c0,2.4,0.8,4.3,1.7,6.3c1.1,2.4,2.5,4.2,5.1,4.5
	c1.5,0.2,1.9,1.1,1.6,2.7c-0.1,0.6-0.3,1.1-0.5,1.7c-0.5,1.5-0.2,2.8,1.1,3.7c0.9,0.6,1.9,1,2.8,1.6c-0.3,1.5-0.8,3-0.9,4.6
	c-0.3,3.6,1.3,6.4,3.7,8.6c0.9,0.8,0.9,1.7,0.7,2.8c-0.2,1-0.1,2.2,0,3.2c0.2,1.5,0.7,3,0.8,4.5c0.1,5.3,1.6,10.3,2.7,15.4
	c0.4,1.7,0.8,3.3-0.1,5c-0.6,1.3-1,2.7-1.4,4.1c-0.1,0.5-0.2,1.3,0.1,1.6c1.4,1.6,2.9,3.3,4.5,4.6c1,0.8,1.5,1.5,1.6,2.8
	c0,1.9,0,3.9,0.2,5.8c0.3,2.5,0.3,5-0.4,7.3c-1.7,5.6-0.9,11.2,1.1,16.4c2.1,5.4,4.9,10.5,7.3,15.8c0.4,0.8,0.4,1.8,0.9,2.3
	c1,1.3,1,2.7,1,4.2c-0.1,3.6-0.1,7.2,0,10.8c0,1.2,0.6,2.2,1.8,2.1c3.3-0.4,6.6-0.4,9.8-1.8c1.3-0.6,2.7-1.2,4.1-1.6
	c2.3-0.8,2.8-1.4,2.8-3.9c0-2.8-0.9-3.8-3.4-4.5c-0.9-0.2-1.9-0.7-2.5-1.5c-0.7-0.9-1.1-2.1-1.5-3.2c-0.3-0.8-0.6-1.7-1.5-1.8
	c0,0,0,0,0,0c-0.1,0-0.3-0.1-0.4-0.1c0,0-0.1,0-0.1,0c-0.2-0.1-0.4-0.2-0.6-0.2c-0.1-0.2-0.1-0.5-0.2-0.7c-0.8-1.8-1.6-3.8-1.9-5.8
	c-0.4-2.6-0.1-5.2-0.3-7.8c-0.3-4.1-0.3-8.2-1.6-12.2c-1-2.9-0.6-5.9-0.2-8.9c0.3-2.2,0.6-4.5,0.8-6.7c0.1-1.7-0.1-3.4,0.1-5.1
	c0.3-2.4-0.3-5,1.1-7.2c1.4,0.2,1.9,0.6,2.2,1.7c0.5,2,1,3.9,1.5,5.9c0.8,3.1,1.7,6.1,2.5,9.2c0.2,0.9,0.4,1.8,0.4,2.7
	c0.1,4.5,0,9,0.2,13.5c0.1,2.7,0.9,5.3,2.2,7.7c0.8,1.5,1.4,3.1,1.9,4.8c1.4,5.8,2.8,11.7,4.1,17.5c0.1,0.5,0.2,0.8,0.5,1
	c0,0,0,0,0,0c-0.1,0.2-0.2,0.5-0.2,0.8c0,0.1,0,0.1,0,0.2c-0.4,0.2-0.7,0.5-1.1,1.2c-1.7,2.6-3.4,5.2-5.1,7.8
	c-1.1,1.7-1.3,3.1,0,4.7c1.1,1.3,2.3,2.4,3.5,3.5c0.7,0.7,1.9,1.3,2.2,2.2c0.5,1.7,1.3,3,2.6,3.9c2.7,2,5.5,4,8.3,5.9
	c1.3,0.8,2.1,0.4,2.7-1.2c0.5-1.5,0.8-3,0.1-4.5c-0.5-1.2-0.9-2.3-1.5-3.4c-1.2-2.3-1.2-4.8-0.8-7.1c0.4-2.1-0.6-3.6-0.9-5.6
	c0-0.2,0-0.4,0-0.7c-0.2-1.2-0.5-2.5-0.7-3.7c0.2-0.5,0.2-1.3,0-2.3c-0.5-3.8-0.7-7.6-0.2-11.5c0.3-2.7,0.1-5.4,0.2-8.2
	c0.2-6.8-0.1-13.5-1.6-20.1c-0.7-2.9-1.1-5.9-1.5-8.9c-0.2-1.5,0.2-3.1,0.2-4.6c-0.1-2.7-0.4-5.4-0.6-8.1c-0.2-2.2-0.1-4.4,1.2-6.4
	c0.3-0.4,0.3-1.2,0.3-1.8c0-0.9-0.2-1.7-0.2-2.6c0-5.9,0.1-11.8,0-17.6c-0.1-2.6-0.7-5.3-1-7.9c-0.2-1.4-0.5-2.8-0.4-4.1
	c0-2.9-0.4-5.6-1.8-8.1c-0.9-1.6-2-3.4-2.2-5.2c-0.6-4.5-2.9-7.9-5.4-11.3c-0.8-1.1-1.8-2.2-2-3.5c-0.4-2.5-0.6-2.6-2.9-3
	c-1.2-0.2-1.7-0.8-1.8-2c-0.1-2-0.8-3.8-1.9-5.3c-0.9-1.2-1.8-2.5-2.4-3.8c-1.2-2.3-2.4-4.5-1.3-7.4c1.1-3.1,0.7-4.6-1.6-6.5
	c0.4,0,0.9,0,1.3,0c0.2,0,0.3-0.1,0.5-0.1c0.3,0.2,0.8,0.1,1.4-0.2c0.6-0.3,1.3-0.4,2-0.5c0,0,0,0,0,0c0,0,0,0,0,0
	c0,0,0.1,0,0.1-0.1c0,0,0-0.1,0.1-0.1c0,0,0.1-0.1,0.2-0.1c0.3-0.2,0.6-0.4,0.9-0.6c0,0,0.1-0.1,0.1-0.1c0.1,0,0.2-0.1,0.3-0.1h0
	c0,0,0,0,0,0c0.5-0.1,0.9-0.1,1.4,0.1c0,0,0.1,0,0.1,0c0,0,0,0,0.1,0c0,0,0.1,0,0.1,0c0.1,0,0.1,0,0.1,0c0,0,0.1-0.1,0.2-0.1
	c0.7,0,1.5,0,2.2,0c0.4-0.1,0.7-0.2,1.1-0.2c2,0,4,0.1,5.9,0.2c0.7,0,1.5-0.1,2.2-0.1c0-0.3,0.1-0.5,0.1-0.8c-1.3-0.5-2.5-1-3.8-1.4
	c0-0.1,0-0.2,0.1-0.4c1-0.1,2.1,0,3.1-0.2c0.1,0.2,0.3,0.4,0.6,0.4c0.2,0,0.3-0.1,0.4-0.1c0.2,0,0.4,0,0.6-0.1
	c0.1,0,0.2-0.1,0.2-0.2c0-0.1,0.1-0.2,0-0.3c0-0.2-0.2-0.3-0.3-0.3c-0.2-0.2-0.4-0.3-0.6-0.4c0-0.3-0.3-0.6-0.5-0.8
	c0,0.1-0.1,0.1-0.2,0.1c-0.8,0-1.5,0.1-2.3,0c-0.1,0-0.3-0.1-0.3-0.3c0,0,0,0,0-0.1h-0.5c-0.1,0-0.3-0.1-0.3-0.3
	c0-0.2,0.1-0.3,0.3-0.3h0.4c0-0.1,0.1-0.1,0.2-0.1h1c0,0,0.1,0,0.1,0c0.7,0,1.4-0.2,2.1-0.2c0,0,0.1,0,0.1,0
	c0.1,0.1,0.2,0.1,0.4,0.1c0.1,0,0.2,0,0.3-0.1c0,0,0,0,0,0c0.2,0,0.4-0.1,0.5-0.2c0,0,0.1-0.1,0.1-0.1c0.1,0,0.1-0.1,0.1-0.2
	c0.2-0.2,0.1-0.6-0.2-0.7c0,0,0,0,0-0.1c0,0,0,0-0.1,0c-0.1-0.1-0.3-0.2-0.5-0.2c-0.1,0-0.2,0-0.3,0.1c0,0,0,0,0,0
	c-0.1,0-0.2,0-0.2,0c-0.2,0-0.3-0.1-0.5-0.1c-0.1,0-0.3,0-0.5,0c0,0-0.1,0-0.1,0s-0.1,0-0.1,0h0c0,0,0,0,0,0c-0.2,0-0.3-0.1-0.5-0.2
	c0,0-0.1,0-0.1-0.1l0,0c0,0-0.1,0-0.1,0h-2.1c-0.3,0-0.3-0.6,0-0.6h0.7c0.2,0,0.3-0.1,0.5-0.2c0,0,0.1,0,0.1,0
	c0.4-0.1,0.8-0.3,1.2-0.4c0.1,0,0.1,0,0.2,0c0,0,0,0,0,0c0.1,0.1,0.2,0.1,0.4,0.1c0.1,0,0.2,0,0.2,0c0,0,0.1,0,0.1,0
	c0,0,0.1,0,0.1,0c0.1,0,0.2,0,0.3-0.1c0.1,0,0.1,0,0.2,0c0.9,0,0.9-1.5,0-1.5h0c-0.1-0.2-0.3-0.3-0.5-0.3c-0.1,0-0.3,0-0.4,0.1
	c0,0,0,0-0.1,0c0,0-0.1,0-0.1,0h-0.1c0,0-0.1-0.1-0.1-0.1c-0.2-0.1-0.6-0.1-0.9-0.1c-0.1,0-0.3,0-0.4,0c0,0.1-0.1,0.2-0.2,0.2
	c-0.2,0-0.5,0-0.7,0h-0.4c0,0-0.1,0-0.1,0c-0.1,0-0.1,0-0.2,0c0,0.1-0.1,0.1-0.2,0.1c-0.7,0-1.4,0.2-2.1,0.2c-0.1,0-0.2,0-0.2-0.1
	c-0.2,0-0.5,0-0.7,0.1c-0.4,0.1-0.7,0.1-1.1,0c0,0-0.1,0-0.1,0c0.3-0.2,0.7-0.4,1-0.6c0,0,0.1,0,0.1,0c0,0,0,0,0,0
	c0.1,0,0.1-0.1,0.2-0.1c0,0.1,0.1,0.1,0.2,0c0.3-0.3,0.7-0.5,1.1-0.5c0.4,0,0.8,0.1,1.1-0.2c0,0,0.1,0,0.1,0v-0.6c0,0-0.1,0-0.1-0.1
	c-0.1-0.1-0.2-0.2-0.3-0.3c-0.2-0.1-0.3-0.1-0.5-0.2c-0.2-0.1-0.5-0.1-0.7-0.2c-0.1,0-0.1,0-0.1,0.1c0,0-0.1-0.1-0.1-0.1
	c-0.1,0-0.2,0-0.3,0c-0.6,0-1.2,0-1.8,0.3c-0.1,0.1-0.1,0.2-0.2,0.2c-0.1,0.1-0.3,0.2-0.4,0.3c-0.2,0.1-0.3,0.1-0.5,0.1
	c-0.1,0-0.1,0-0.2,0c-0.1,0-0.1,0.1-0.2,0.1s-0.1,0.2-0.1,0.3c-1.6,0.2-2.9,1.3-4.3,2.2c-1.6,1-3.1,2.2-4.8,3
	c-1.6,0.8-2.8,0.1-3.4-1.7c-0.4-1.1-0.7-2.4-0.8-3.6c-0.1-1.3-0.1-2.6-1.1-3.6c-0.2-0.3-0.4-0.8-0.4-1.2c-0.2-1.8-0.4-3.5-0.5-5.3
	c0-0.2-0.1-0.6,0-0.7c1.1-1.1,2.2-2.1,3.3-3.1c0.4-0.3,1-0.5,1.1-0.8c1.1-3,3.3-4.3,5.7-5.6c1.3-0.7,2.5-1.9,3.6-3.1
	c1-1.1,2-1.7,3.4-1c0.2,0.1,0.4,0.2,0.6,0.2c1.8,0.2,2.8,1.2,3.4,2.7c0,0,0,0.1,0.1,0.1c1,0.6,1.4,1.9,1.7,3
	c0.5,1.5,1.1,2.9,1.7,4.2c0.2,0.4,0.2,0.7,0.1,1c0.3,0.6,0.6,1.2,0.7,1.8c0.8,3,1.4,6.1,1.9,9.2c0.2,1.1,0.1,2.2,0.1,3.3
	c0,0,0,0,0,0c0,0.3,0.1,0.6,0.3,1c0.1,0.4,0.1,0.8,0.2,1.1c0,0.2-0.1,0.4-0.3,0.6c0,0,0,0,0,0c0.2,0.2,0.2,0.6,0.2,0.9
	c0,0.1,0,0.3,0.1,0.4c0,0.1,0,0.3,0,0.4c0,0.1,0,0.1,0,0.2c0,0.1,0,0.2,0,0.3c0,0,0,0.1,0,0.1c0.2,0.5,0.2,1.1,0.2,1.7
	c0,1.6,0,3.1,0,4.7c0.1,6,0.5,11.9,2.7,17.4c0.5,1.4,1.4,2.7,2.3,3.8c1.2,1.4,2.7,1.4,4.3,0.5c0.8-0.5,1.6-0.9,2.4-1.3
	c0,0,0.1,0.1,0.1,0.2c-0.4,0.4-0.8,0.7-1.2,1.1c0,0,0.1,0,0.2,0.1c0,0,0.1,0,0.1,0.1c0.6-0.2,1.1-0.5,1.5-1c1-1.2,2.1-2.4,2.8-3.9
	c1.1-2.1,1.7-4.4,2.8-6.4c0.1-0.1,0.1-0.3,0.2-0.4v0c0-0.1,0-0.2,0.1-0.3c-0.1-0.5,0-1,0.3-1.4c0.1-1.5,0-3.1,0.9-4.4
	C407,423.5,408.1,419.4,406.1,415.7z M329.4,430.6c-0.3-0.5-0.6-1.1-1-1.9c1,0.5,1.7,0.8,2.4,1.1C330.3,430,329.9,430.3,329.4,430.6
	z M332,429c-0.2-0.3-0.4-0.6-0.6-0.9c-0.5-0.8-0.9-1.6-1.5-2.6c1.3,0.6,1.1,2.8,2.8,2.5C332.4,428.3,332.2,428.6,332,429z
	 M330.9,423.4v-2.1c0.1-0.1,0.2-0.1,0.3-0.2c0.2,0.4,0.5,0.7,0.9,1.2C331.6,422.7,331.3,423,330.9,423.4z M349.8,416.2
	c-0.8-0.4-2.9,0.9-3.4,1.9c-0.4,0.8-1,1.6-1.5,2.3c-0.1,0.1-0.2,0.3-0.3,0.2c-1.5-0.7-2,0.4-2.4,1.7c-0.1,0.3-0.6,0.6-1,0.7
	c-1.7,0.2-2.8,1.6-4.1,2.6c-1.1,0.8-2.2,1.5-3.3,2.2c-0.3,0.2-0.8,0.1-1.1,0.1c0.9-0.8,1.7-1.7,2.6-2.5c-0.7-1.3-1.4-2.6-2.1-3.9
	c-0.4-0.7-0.8-1.4-1.2-2.1c0-0.1-0.2,0-0.4-0.1c-0.7,1.3-2.7,1.7-2.1,3.9c-1.6-1-3.2,0.1-3.4,2.3c-0.1,2.3,1,4.1,2.1,6
	c-1.1,1-2.4,2.1-3.8,3.4c-0.5-0.9-1.4-1.8-1.6-2.9c-0.4-2.8-1.8-4.9-3.2-7.1c-1.4-2.1-1-2.6,1-3.9c2.1-1.4,4-3.3,5.9-5.1
	c4.5-4.6,9-9.4,13.4-14c0.6-0.6,1.4-1.1,2.2-1.8c2.9,4.8,5.8,9.5,8.8,14.4C350.6,415,350.2,415.6,349.8,416.2z M378.5,487.5
	c1.3,0.4,2.8,0.7,3.5,2.2C380.7,489.2,379.1,489.1,378.5,487.5z M378.5,482.4c1.9,1.3,4.3,1.5,5.9,3.4c0,0.1-0.1,0.2-0.2,0.4
	c-2-1-4.1-1.9-6.1-2.9C378.3,483,378.4,482.7,378.5,482.4z M383.3,487.9c-2-1-4.3-1.3-5.8-3.3C379.6,485.5,381.9,485.8,383.3,487.9z
	 M380.1,410.4c-0.1,0-0.2,0-0.3,0c0,0,0-0.1,0-0.1C379.9,410.4,380,410.4,380.1,410.4z M379.2,410.3c0,0,0,0.1-0.1,0.1
	c-0.1,0-0.3,0-0.4,0.1c0,0-0.1,0-0.1,0C378.8,410.4,379,410.4,379.2,410.3z M376.7,411.8c0.1,0,0.2,0,0.3,0
	c-0.2,0.1-0.4,0.2-0.5,0.3C376.4,412,376.5,411.8,376.7,411.8z M375.5,376.6c0-0.1,0.1-0.1,0.1-0.2c0.1,0,0.1,0,0.2,0.1
	C375.7,376.5,375.6,376.5,375.5,376.6z M399.2,411.9c0.6,1.8-0.7,2.3-1.1,3.2c-0.1-0.1-0.3-0.2-0.4-0.3
	C398.2,413.9,398.6,413,399.2,411.9z M390.7,411.9c-0.3-0.2-0.5-0.5-0.6-0.9c0,0,0-0.1,0-0.1c-0.2-0.3-0.2-0.6-0.2-0.9
	c-0.3-0.4-0.4-0.9-0.3-1.4c-0.4-1.4-0.7-2.7-1-4c-0.2-0.8,0.3-1.2,1-0.9c0.6,0.3,1.2,0.7,1.8,1.2c0.1,0,0.2,0.1,0.3,0.2
	c0.4,0.3,0.8,0.4,1.2,0.8c0,0,0.1,0.1,0.1,0.1c0,0,0,0,0,0.1c0.1,0.1,0.3,0.3,0.4,0.5c0,0,0,0.1,0.1,0.1c0.3,0.2,0.5,0.4,0.8,0.5
	c0.7,0.5,0.9,1.6,0.3,2.3c-0.4,0.4-0.7,0.9-1.2,1.3c0,0.1-0.1,0.2-0.2,0.3c-0.1,0.3-0.4,0.4-0.6,0.5c-0.1,0.1-0.2,0.1-0.2,0.1
	c0,0,0,0-0.1,0c-0.5,1-1,1.9-1.5,2.9c-0.2-0.1-0.3-0.1-0.5-0.2c0.2-0.9,0.4-1.7,0.6-2.5C390.8,412,390.7,412,390.7,411.9z
	 M404.6,425.5c-0.1,1.5-0.5,3-0.7,4.5c-0.3,2.3-1.9,3.8-3,5.7c0,0.1-0.2,0.1-0.5,0.2c0-0.5,0.1-1,0.1-1.4c-0.1,0-0.1,0-0.2-0.1
	c-0.9,1.6-1.7,3.3-2.6,4.9c0.1,0.1,0.3,0.2,0.4,0.4c0.1-0.4,0.2-0.8,0.4-1.2c0.2,0.1,0.4,0.3,0.5,0.4c-0.7,1.5-1.4,3-2.1,4.5
	c-0.1,0-0.3-0.1-0.4-0.1c0.1-0.6,0.2-1.2,0.3-1.8c0,0-0.1-0.1-0.2-0.1l-1.2,2.2c-0.1,0-0.2-0.1-0.3-0.1c0.4-0.9,0.8-1.8,1.2-2.9
	c-0.7,0.6-1.4,1.2-2.1,1.8c-0.1-0.1-0.2-0.2-0.3-0.2c0.3-0.8,0.5-1.6,0.8-2.4c-0.1,0-0.1-0.1-0.2-0.1c-0.4,0.5-0.7,1-1.2,1.7
	c-0.1-0.8-0.2-1.3-0.2-1.9c0-0.1,0-0.3,0-0.4c-2.1-1.7-1.9-4.4-2.2-6.6c-0.6-4.2-0.5-8.5-0.7-12.8c0-1.7,0.3-2,1.8-1.7
	c1.1,0.2,2.2,0.6,3.3,0.9c0.4,0.1,0.8,0,1.3,0c0.7,0,1.3,0.1,2,0.1c0.5,0,0.9-0.1,1.6-0.2c0,0,0,0.2,0.1,0.5
	c0.2-0.2,0.4-0.4,0.6-0.5c0.1,0.2,0.2,0.5,0.3,0.7c0.3-0.2,0.7-0.6,0.8-0.5c0.8,0.5,2.3,0,2.4,1.8
	C404.5,422.3,404.7,423.9,404.6,425.5z"/>
<text transform="matrix(1.2662 0 0 1 395.5139 596.5845)" class="st1 st2">白門会</text>
<text class="st3 st4"> </text>
<rect x="119.9" y="-893.3" style="fill:none;" width="398.7" height="63.1"/>
<path d="M1209.7,519.5c0.8,0.3,1.9,1,3.2,2c1.3,1,2.2,2,2.7,3c1.4,2.6,2.8,5,4,7.1s2.2,4.1,3.1,5.7c0.8,1.6,1.5,3.2,2.1,4.8
	c3.7,9.5,6.5,16.4,8.5,20.7c2,4.3,3.6,6.7,4.9,7.2c0.8,0.3,1.7,0.1,2.5-0.6c0.8-0.7,1.6-1.8,2.2-3.3c1.2-3,1.8-7.2,1.8-12.4
	c0-5.3-0.2-11.5-0.7-18.8c-0.5-7.2-0.6-11.2-0.3-11.9c0.4-1.1,1.4-1.4,2.7-0.8c1.2,0.5,2.6,1.5,4.4,3.2c2.1,1.6,3.7,2.8,4.8,3.7
	c1.1,0.9,2,2,2.6,3.4s1.1,3.4,1.4,6.1c0.3,2.7,0.5,6.7,0.8,12.1l-2.2-0.2c-0.2,4.3-0.7,8.4-1.3,12c-0.7,3.7-1.5,6.7-2.5,9.1
	c-1.9,4.7-4,7.8-6.2,9.2c-2.2,1.4-5.6,1.2-10.3-0.6c-2.5-1-4.5-2.3-5.8-3.8c-1.3-1.5-3-4.1-5-7.8c-4.8-8.4-8-14.6-9.6-18.6
	c-4.8-11.5-7.9-17.5-9.3-18c-0.8-0.3-1.4,0.1-1.9,1.3c-0.4,1-0.4,2.6,0.1,4.9c0.5,2.3,1.3,5.1,2.6,8.5c1.2,3.4,3,8.2,5.4,14.3
	c2.5,6.5,4.8,12.1,6.9,16.7c2.1,4.6,3.9,8.4,5.4,11.5c1.6,3.1,2.4,4.7,2.5,4.9c1.4,3.1,2.4,6.1,3,9.1c0.5,2.9,0.7,4.7,0.4,5.4
	c-0.2,0.5-0.8,0.9-1.9,1.2c-1,0.3-2.2,0.5-3.4,0.6c-1.2,0.1-2.2,0-2.7-0.3c-0.2-0.1-0.8-0.9-2-2.5c-1.1-1.6-2.3-3.3-3.5-5
	c-1.2-1.8-2.9-4.6-5.3-8.4c-5.2-8.5-9.7-15.1-13.6-20c-3.9-4.9-6.6-7.7-8.2-8.3c-0.6-0.2-1.2-0.2-1.8,0.1c-0.7,0.3-1.1,0.7-1.3,1.2
	c-0.3,0.6-0.3,2-0.1,4.1c0.2,2.1,0.7,4.5,1.6,7.2c1.1,3.6,2.5,7,4,10.2c1.5,3.2,3.3,6.5,5.4,9.8c2.1,3.4,4.1,6.4,6.1,9.2
	c2,2.8,4.1,5.6,6.3,8.5l3.1,0c0.5,0,1.1,0.1,1.7,0.4c0.5,0.2,1.8,2.1,3.7,5.6c1.9,3.5,2.7,5.7,2.4,6.5c-0.3,0.9-1.2,1.4-2.5,1.5
	c-1.3,0.2-2.5,0-3.6-0.4c-1.2-0.5-3.3-2-6.4-4.7c-3.1-2.6-6.6-6.3-10.6-10.9c-4-4.6-7.9-9.9-11.5-15.8c-3.2-5.1-5.7-10.2-7.4-15.3
	c-1.7-5.1-2.7-9.5-3.1-13.1c-0.3-3.7-0.2-6.2,0.4-7.7c0.7-1.7,2-3.2,4-4.5c1.7-1.1,3.2-1.7,4.3-2c1.2-0.3,2.3-0.3,3.4-0.1
	c1.1,0.2,2.4,0.6,3.8,1.2c3,1.2,6.1,3.5,9.4,7c3.2,3.5,7.1,8.3,11.5,14.4c-7.7-16.7-13-29.5-16-38.2c-3-8.7-3.9-14.6-2.7-17.6
	c0.8-2,2.5-3.3,5.2-3.8C1204,518.1,1206.8,518.4,1209.7,519.5z"/>
<path d="M1165.6,612.6l-1-1c-1.6-1.6-3.3-2.3-5.1-2.3c-1.8,0-3.4,0.8-4.9,2.2c-1.5,1.5-2.8,3.4-3.9,5.6c-1,2.2-1.9,4.6-2.5,7.3
	c-0.6,2.6-1.3,5.9-1.9,9.9l-2.4-2.4c-0.1-7.1,0.5-13.1,1.7-18.1c1.2-5,3.4-9,6.6-12.2c2.8-2.7,6-4,9.5-3.8c3.5,0.2,6.8,1.9,10,5.1
	c2.8,2.8,4.6,6.1,5.3,9.8c0.7,3.8,0.6,8.6-0.4,14.6c-0.7,4.1-1.7,7.7-3.2,10.9c-1.5,3.2-3.2,5.7-5,7.5c-1.5,1.4-3,2.3-4.4,2.6
	c-1.4,0.3-2.7-0.2-3.9-1.3c-1.7-1.7-2.6-4.1-2.8-7.2c-0.2-3.1,0.4-7,1.8-11.6C1160.4,623.7,1162.6,618.5,1165.6,612.6z
	 M1167.7,615.6c-1.9,3.7-3.2,7.2-3.8,10.6c-0.6,3.3-0.8,6.1-0.5,8.3c0.3,2.2,0.8,3.6,1.3,4.2c0.6,0.6,1.3,0.6,1.9-0.1
	c0.6-0.6,1.2-1.8,1.9-3.6c0.7-1.9,1.2-3.9,1.5-6.2c0.3-2.3,0.3-4.6,0-6.9C1169.7,619.6,1168.9,617.5,1167.7,615.6z"/>
<path d="M1107.2,673.3c-3.4,7.7-7.3,14.2-11.6,19.4c-4.3,5.2-8,8.6-11.1,10.3c-0.8,0.4-1.7,0.6-2.8,0.4c-1-0.2-1.9-0.6-2.8-1.1
	c-0.8-0.5-1.3-1-1.5-1.3c-0.3-0.6-0.3-1.2,0.1-1.7c0.4-0.6,1.2-1.4,2.3-2.6c-0.6-0.4-1.3-0.9-2.2-1.4c-0.9-0.6-1.6-1.1-2.1-1.4
	c-0.5-0.4-0.9-0.8-1.1-1.2c-0.4-0.8-0.3-2.8,0.4-5.9c0.7-3.2,1.1-5.5,1.3-6.9c0.2-1.4-0.1-2.9-0.9-4.3c-1.4-2.4-3.4-2.9-6-1.5
	c-2.7,1.5-5.8,5.9-9.2,13.4l-1.7-3c4.7-14.5,9.2-22.9,13.5-25.2c1.5-0.8,2.8-1,3.9-0.5c1.1,0.5,2.1,1.5,3,3.2c1.4,2.6,2.4,6.9,3,13
	c2.7-8.4,4.8-14.4,6.4-18.2c1.5-3.7,3.2-6.1,5-7.1c0.9-0.5,2.3-0.4,4.3,0.1c2,0.5,4,1.5,6.1,3c2.1,1.4,3.7,3.2,4.9,5.3
	c0.9,1.5,1.4,2.9,1.6,4.1c0.2,1.2,0.1,2.6-0.3,4.3C1109.2,668,1108.4,670.3,1107.2,673.3z M1082.2,693.8c8-9.4,13.3-16.6,16.1-21.6
	c2.8-5,3.4-9,1.8-11.9c-0.6-1-1.3-1.8-2.1-2.2c-0.8-0.4-1.6-0.5-2.3-0.1c-0.4,0.2-1.1,0.9-1.9,1.9c-3,4.2-5.2,8.9-6.8,14
	C1085.4,679,1083.8,685.7,1082.2,693.8z"/>
<path d="M1055.7,684l1.5,3.3c-1.2,3.1-2.1,5.7-2.6,7.7c1.5-0.2,2.6-0.1,3.5,0.2c0.8,0.3,1.5,1,2,2.1c0.5,1.2,0.6,3.1,0.2,5.5
	c-0.4,2.4-1.1,4.8-2.2,7.2c-1.1,2.4-2.2,4.2-3.5,5.3c-0.5,0.5-1,0.8-1.5,1.1c-0.8,0.3-1.4,0.2-1.7-0.5c-0.3-0.6-0.1-2,0.3-4.4
	c-7.9,4.7-13,7.5-15.2,8.4c-0.9,0.4-1.5,0.5-1.9,0.6c-0.8,0-1.7-0.5-2.7-1.4c-0.9-0.9-1.7-2-2.2-3.1c-0.3-0.7-0.3-1.7,0.1-2.8
	c0.4-1.2,1.1-2.9,2.3-5.3c1.3-2.9,2.2-5.8,2.7-8.7c0.5-2.9,0.4-5-0.1-6.1c-0.7-1.6-2.2-1.9-4.6-0.9c-2.5,1.1-5.9,5-10.2,11.9
	l-1.5-3.4c2.1-4.4,3.8-8,5.3-10.6c1.5-2.7,2.9-4.9,4.3-6.7c1.4-1.8,2.9-3,4.4-3.7c1.7-0.7,3.4-0.7,5.2,0.2c1.7,0.8,3.1,2.5,4.2,5
	c0.6,1.5,0.9,3.3,0.9,5.6c-0.1,2.3-0.5,4.9-1.3,7.8c-0.8,2.9-1.7,6-2.9,9.1c1.1-0.7,2.2-1.5,3.6-2.3c1.3-0.8,2.7-1.7,4.2-2.6
	c1.5-0.9,2.6-1.6,3.4-2.1C1050.4,694.9,1052.4,689.5,1055.7,684z"/>
<path d="M1005.9,706.7l-0.5-1.3c-0.8-2.1-1.9-3.5-3.6-4.2c-1.6-0.7-3.4-0.8-5.4-0.1c-2.1,0.7-4,1.9-5.9,3.5
	c-1.9,1.6-3.7,3.4-5.4,5.5c-1.7,2.1-3.7,4.8-6,8.2l-1.2-3.2c3-6.4,6.1-11.7,9.3-15.7c3.2-4,7-6.8,11.3-8.3c3.7-1.3,7.1-1.1,10.2,0.5
	c3.1,1.7,5.4,4.6,6.9,8.8c1.3,3.7,1.5,7.4,0.6,11.1c-1,3.7-3.2,8.1-6.6,13c-2.4,3.4-4.9,6.2-7.6,8.5c-2.7,2.3-5.3,3.8-7.8,4.7
	c-2,0.7-3.7,0.9-5.1,0.5c-1.4-0.4-2.4-1.3-3-2.8c-0.8-2.2-0.6-4.8,0.5-7.7c1.2-2.9,3.4-6.1,6.6-9.7
	C996.5,714.6,1000.7,710.8,1005.9,706.7z M1006.5,710.4c-3.3,2.6-6,5.2-8,8c-2,2.8-3.4,5.2-4,7.3c-0.7,2.1-0.9,3.6-0.6,4.3
	c0.3,0.8,0.9,1.1,1.8,0.7c0.8-0.3,1.8-1.1,3.2-2.5c1.4-1.4,2.7-3.1,4-5c1.3-1.9,2.3-4,3-6.2C1006.6,714.8,1006.8,712.6,1006.5,710.4
	z"/>
<path d="M874,731.9l-0.8-3.5c5.7-8.4,11.2-15.5,16.3-21.3c5.1-5.8,10.3-10.5,15.6-14.2c5.3-3.7,10.6-6.1,16.1-7.3
	c4.7-1,8.9-1.1,12.6-0.3c3.7,0.8,6.8,2.5,9.2,5.2c2.4,2.6,4.1,6,5,10.1c0.7,3.2,0.9,6.8,0.5,10.7c-0.4,3.9-1.4,7.9-2.9,12.2
	c-1.5,4.2-3.5,8.7-6,13.3s-5.6,9.7-9.2,15c-3.8,5.5-7.6,10.4-11.5,14.7c-3.9,4.3-7.5,7.8-10.9,10.5c-3.4,2.7-6.5,4.8-9.6,6.5
	c-3,1.6-5.6,2.7-7.7,3.1c-2.2,0.5-4.1,0.4-5.8-0.1c-1.7-0.5-3.2-1.6-4.4-3c-1.2-1.5-2.1-3.3-2.6-5.5c-0.9-4.1-0.3-9.1,1.9-14.8
	c2.2-5.8,5.3-11.6,9.2-17.4c3.9-5.8,7.8-10.7,11.7-14.7c3.9-4,6.8-6.2,8.8-6.6c1.3-0.3,2.7-0.1,4.1,0.5c1.4,0.6,2.2,1.5,2.4,2.7
	c0.5,2.1-0.3,4.9-2.2,8.4c-2,3.5-4.2,6.9-6.8,10c-2.5,3.1-4.1,4.8-4.7,4.9c-0.3,0.1-0.5,0-0.5-0.2c-0.1-0.3,0-0.9,0.3-1.8
	c0.3-0.9,0.4-1.4,0.3-1.6c-0.1-0.3-0.2-0.4-0.5-0.4c-0.7,0.2-2.5,2.3-5.3,6.4c-2.8,4.1-5.2,8.5-7.2,13.1c-2,4.6-2.7,8.2-2.2,10.8
	c0.2,1.1,0.7,1.8,1.4,2.3c0.7,0.4,1.6,0.5,2.6,0.3c3-0.7,7.2-3.8,12.4-9.3c5.2-5.5,10.4-12.2,15.4-20c5-7.8,9-15.6,11.7-23.4
	c2.8-7.8,3.6-14.2,2.4-19.4c-0.7-3-1.8-5.4-3.3-7.1c-1.5-1.8-3.4-3-5.8-3.6c-2.3-0.6-4.9-0.6-7.8,0c-6.3,1.4-13,5-20,10.9
	C889.2,713.8,881.8,721.8,874,731.9z"/>
<path d="M821.4,739.3l-0.6-3.5c3.3-3.9,6.2-7.1,8.6-9.6c2.5-2.5,4.6-4.5,6.6-5.9c1.9-1.4,3.6-2.2,5.1-2.4c3.4-0.5,5.4,0.9,6,4.3
	c0.4,2.7-0.1,6.1-1.7,10c-1.6,3.9-3.9,8.6-7.2,14.1c1.8-1.2,3.5-2.6,5.1-4c1.6-1.5,2.9-3,4.1-4.5c1.2-1.5,2.1-2.8,2.9-3.9
	c2.4-3.1,4.7-6.3,6.9-9.5c2.2-3.2,3.7-5.3,4.5-6.3c0.8-1,1.6-1.6,2.4-1.7c3.4-0.5,5.7,2.7,6.8,9.8c0.4,2.3,0.4,4.9,0,7.9
	c-0.4,2.9-2,7-4.9,12.2c-6.1,10.8-11.5,19.8-16,26.7c-4.5,7-8.3,12.3-11.4,16c-3.1,3.7-5.3,5.6-6.5,5.7c-1.6,0.1-2.8,0.1-3.9-0.2
	c-1-0.3-1.6-0.6-1.6-1.2c-0.1-0.9,0.4-2.6,1.5-4.9c1.2-2.4,3.3-6.1,6.2-11.1c3.2-5.4,5.5-9.2,6.9-11.4c1.4-2.2,3.4-5.3,6.2-9.4
	c2.8-4.1,5.3-7.7,7.6-10.9c2.3-3.2,5-6.7,8-10.5l-1.1-6.6c-5,6.4-9.4,11.7-13.1,15.9c-3.7,4.2-7,7.4-9.7,9.6
	c-2.7,2.3-4.8,3.5-6.2,3.7c-1.3,0.2-2.7-0.3-4-1.4c-1.4-1.1-2.1-2.1-2.2-3c-0.1-0.4,0.1-0.9,0.4-1.5c2.7-3.7,4.8-6.7,6.3-9
	c1.5-2.4,2.7-4.5,3.4-6.3c0.7-1.8,1-3.3,0.8-4.5c-0.3-1.7-1.4-2.4-3.4-2.1C832.2,730.3,827.8,733.4,821.4,739.3z"/>
<path d="M786.8,747c5.6-7.8,9.9-13.4,12.9-16.8c3-3.4,5.6-5.2,7.7-5.4c1.7-0.2,3.3,0.2,4.8,1.2c1.5,1,2.8,2.5,3.8,4.4
	c1,1.9,1.6,4,1.9,6.2c0.2,1.5,0.2,2.8,0,4.1c-0.2,1.2-0.7,2.6-1.4,4.1c-0.8,1.5-1.8,3.2-3.2,5c-1.3,1.8-3,3.9-5,6.3
	c-1.2,1.4-2.2,2.7-3,3.6c-0.8,1-1.6,1.7-2.5,2.1c-0.8,0.4-2.2,0.7-4.2,0.9c-1.4,0.2-2.8,0.1-4.1,0c-1.3-0.2-2-0.4-2-0.8
	c-0.1-0.7,0.4-1.9,1.5-3.8c1.1-1.9,3-4.2,5.6-7.1s5.7-5.6,9.2-8.5c0.6-2.3,0.8-4,0.7-5.1c-0.2-1.6-1-2.3-2.5-2.2
	c-0.5,0.1-1.4,0.5-2.5,1.4c-1.2,0.9-3.1,2.6-5.8,5.1c-2.7,2.5-5.1,4.7-7.3,6.6c-1.6,1.4-3.4,3.5-5.4,6.3c-2,2.8-3.6,4.8-4.9,6.3
	c-2.9,3.2-5,5.4-6.1,6.4s-2.2,1.6-3.3,1.7c-1.1,0.1-1.8-0.1-2.3-0.6c-0.4-0.5-0.8-1.6-0.9-3.3c-0.1-0.8-0.1-1.4,0.1-1.9
	c0.1-0.5,0.4-1.2,0.9-2c0.5-0.8,1.4-2.3,2.9-4.6c1.5-2.2,3.2-4.9,5.2-7.9c1.1-1.6,2-3.4,2.7-5.2c0.7-1.9,1-3.2,0.9-4.1
	c-0.2-1.9-1.2-2.8-3-2.6c-1.5,0.2-3.2,0.9-5.1,2.1c-1.9,1.3-4.7,3.5-8.5,6.6l-0.4-3.7c4.7-4.6,8.2-7.9,10.5-10
	c2.3-2.1,4.3-3.7,6-4.8c1.7-1.1,3.4-1.8,5-2c3.7-0.4,5.8,1.2,6.2,5c0.2,1.4-0.2,3.4-1,5.9C790.1,738.5,788.7,742.2,786.8,747z"/>
<path d="M718.7,748.8l-0.3-3.7c2.8-2.4,5-4.1,6.7-5c1.7-0.9,4.3-1.3,7.6-1.4c5.4-6.1,10.2-9.3,14.6-9.7c2.5-0.2,4.8,0.4,6.9,1.6
	c2.1,1.2,3.9,3,5.3,5.3c1.4,2.3,2.2,4.9,2.4,7.9c0.2,2.4-0.6,5.1-2.3,8.1c-1.7,3-3.9,5.9-6.7,8.6c-2.8,2.7-5.9,5-9.2,6.8
	c-3.3,1.8-6.4,2.8-9.4,3c-2.1,0.1-3.7,0-5-0.5c-1.2-0.5-1.9-1.2-2-2.1c-0.1-0.7,0.4-1.6,1.3-2.7c-1.7-0.2-2.9-0.6-3.6-1.2
	c-0.7-0.6-1.1-1.9-1.2-3.7c-0.1-1.8,0.2-4.1,1-6.9c0.8-2.8,2-5.4,3.5-7.9l-1.3-0.9l-1,0.1c-0.8,0.1-1.5,0.3-2.2,0.6
	c-0.7,0.4-1.3,0.7-1.9,1.1C721.7,746.5,720.5,747.4,718.7,748.8z M733.5,762.5c3.6-2.1,6.6-4,9.1-5.7c2.5-1.7,4.6-3.4,6.3-5
	c1.7-1.7,2.8-3.3,3.3-4.9c0.8-4.2,1.2-6.5,1.2-6.9c-0.2-2.5-2.3-3.5-6.4-3.3c-1.9,0.1-5,1.7-9.3,4.8c0.9,1.7,1.4,3.3,1.5,4.9
	c0.2,2.3-0.2,4.8-1.2,7.3C737,756.2,735.5,759.2,733.5,762.5z"/>
<path d="M601.2,775.4c4.4-5.3,8.2-10.2,11.2-14.5c3-4.3,5.3-8,6.8-11.1c1.5-3.1,2.3-5.3,2.3-6.8c0-2.8-1.4-4.2-4.3-4.2
	c-3.1,0-10.1,3.4-21,10.3l0.2-3.9c12.6-10.6,21.9-15.8,27.7-15.8c6.9,0.1,10.4,3.1,10.3,9.2c0,3.6-2.2,8.7-6.5,15.3
	c-4.3,6.6-10.9,15.1-19.7,25.5c10.3-9.2,18.9-16.8,25.8-22.7c6.9-5.9,14-11.7,21.4-17.2c1.8-1.4,3.3-2.6,4.8-3.7
	c1.4-1.1,2.9-2,4.3-2.6s3-0.9,4.7-0.9c2.6,0,4.8,0.9,6.5,2.6c1.7,1.7,2.6,4.2,2.5,7.3c0,2-0.8,4.3-2.2,7c-1.5,2.7-3.6,5.7-6.6,9.2
	c-2.9,3.5-6.5,7.4-10.8,11.5c-6.9,6.8-11.7,11.6-14.4,14.5c-2.7,2.8-4,4.6-4,5.4c0,0.6,0.3,0.8,1.1,0.9c0.8,0,2.3-0.3,4.3-0.9
	c2-0.6,4.6-1.7,7.9-3.1c3.3-1.4,7.5-3.5,12.6-6.2c3.9-2,7.6-3.6,11.4-4.8c3.7-1.2,6.4-1.8,7.9-1.8c0.9,0,1.6,0.2,2.2,0.6
	c0.6,0.4,0.9,0.9,0.9,1.6c0,0.9-0.5,2.4-1.5,4.4c-1,2-2.2,4.1-3.7,6.3c-1.5,2.2-2.9,3.8-4,4.9c-3.2,3-7.7,5.5-13.2,7.8
	c-5.6,2.2-11.3,3.9-17.2,5.1c-5.9,1.2-10.8,1.7-14.6,1.7c-2.8,0-4.9-0.5-6.2-1.3c-1.3-0.8-1.9-2.1-1.9-4c0-4,0.7-7.1,1.9-9.2
	c1.2-2.2,3.3-5,6.1-8.4c1-1.3,2.6-3.2,4.6-5.5c2.1-2.3,4.1-4.6,6.2-6.8c2.1-2.2,3.8-4,5.2-5.5c1.4-1.5,2.8-3.1,4.2-4.9
	c3.9-4.7,6.4-7.8,7.4-9.2c1-1.4,1.6-2.6,1.6-3.6c0-1.3-0.7-2-2.2-2c-1.3,0-2.6,0.4-3.9,1.2c-1.3,0.8-3.9,2.7-8.1,5.6
	c-4.8,3.3-9.4,6.9-13.9,10.5c-4.5,3.7-8.6,7.2-12.3,10.5c-3.7,3.3-8.4,7.7-14,13c-6.3,6.1-10.4,9.8-12.1,11.3
	c-1.8,1.5-3.2,2.3-4.3,2.2c-1,0-1.9-0.7-2.6-2c-0.8-1.3-1.1-3.2-1.1-5.6c0-1.3,0.8-2.9,2.4-5C592.8,785.6,596.1,781.5,601.2,775.4z"
	/>
<path d="M547.5,755.5c8.3-6.8,12.5-11.6,12.7-14.5c0.1-1.6-0.6-2.5-2.2-2.5c-1.3-0.1-3,0.4-5.1,1.4c-2.1,1-5.5,2.8-10.1,5.5l0.3-3.9
	c6.6-4.8,11.7-8.3,15.3-10.4c3.5-2.1,6.4-3.1,8.5-2.9c3.6,0.2,5.3,2.4,5.1,6.4c-0.1,1.2-0.4,2.3-0.9,3.5c-0.5,1.1-1.2,2.3-2.1,3.5
	c-0.9,1.2-2.2,2.9-3.9,5.1c-1.8,2.2-3.8,4.7-6,7.6c2.6-0.9,5.9-2.9,10-5.8c2.6-1.9,4.9-3.6,6.7-5.3c1.9-1.7,3.8-3.6,6-5.7
	c2.1-2.1,3.7-3.5,4.6-4.2c1-0.7,1.9-1,2.8-1c1.4,0.1,2.7,1.4,3.7,4c1,2.6,1.4,5.5,1.2,8.8c-0.1,2-0.5,3.6-1.1,4.8
	c-0.6,1.1-1.8,2.7-3.6,4.7c-3.3,3.8-6.2,6.5-8.5,8.2c-2.3,1.7-4.5,2.5-6.6,2.4c-1.4-0.1-2.6-0.4-3.4-0.8c-0.8-0.5-1.2-1.1-1.2-2
	c0-0.4,0.2-0.8,0.5-1.1c0.3-0.4,0.6-0.7,1-1.1c0.4-0.3,1.1-0.9,2.2-1.8c7.4-6.1,11.2-10.1,11.4-12c0.1-1.1-0.3-1.6-1.2-1.7
	c-0.5,0-1.6,0.6-3.2,2c-1.6,1.3-3.7,3.1-6.3,5.3c-2.6,2.2-5.6,4.4-9.1,6.7c-3.5,2.3-7.4,4.5-11.8,6.6c-2.4,1.2-4.4,1.8-6,1.7
	c-0.7,0-1.4-0.9-1.9-2.6c-0.6-1.7-0.8-3.4-0.7-5C544.5,758.2,545.5,757.1,547.5,755.5z"/>
<path d="M509.8,766.8c1.1,0.1,2.1,0.6,3.1,1.4c0.9,0.8,1.3,1.7,1.2,2.8c-0.2,1.6-1.3,3.4-3.3,5.2c-2.1,1.8-4.1,2.6-6.1,2.4
	c-1.3-0.1-2.4-0.6-3.2-1.4c-0.8-0.8-1.2-1.8-1-3.1c0.2-1.6,1.2-3.3,3.3-5C505.6,767.4,507.7,766.6,509.8,766.8z M507.8,741.5
	l0.4-4.1c4.8-4.2,9.1-7.3,13.1-9.3c4-2,7.2-2.9,9.9-2.6c3.6,0.4,6.2,2.2,7.6,5.6c1.5,3.4,2,6.9,1.6,10.7c-0.1,1.4-0.5,2.8-0.9,4.1
	c-0.5,1.3-1,2.3-1.6,3.1c-0.6,0.8-1.6,2.1-3.1,3.7c-7.1,7.6-13.3,11.1-18.5,10.6c-2.7-0.3-4-1.3-3.8-3c0.1-1.2,1.2-3,3.2-5.3
	c2-2.4,3.7-4,5.2-4.9c4.2-2.7,6.9-4.7,8.2-5.8c1.3-1.1,2-2.4,2.2-4c0.1-1.3-0.4-2.5-1.5-3.5c-1.1-1-2.6-1.6-4.5-1.8
	c-2.1-0.2-4.4,0.2-7.1,1.3S512,739.1,507.8,741.5z"/>
<path d="M495.9,740l1.8-4.5c0.3-0.6,0.4-1.2,0.5-2c0.3-2-0.6-3.1-2.6-3.4c-1.9-0.2-6.9,2.3-15.1,7.5c-0.4,2.4-1.8,5-4.3,7.9
	c-2.5,2.9-5.2,5.3-8.1,7.4c-2.9,2-4.9,3-6.1,2.8c-1.9-0.3-2.8-1.5-2.5-3.6c0.2-1.3,0.8-2.8,1.8-4.6c1-1.8,2.4-3.6,4.1-5.6
	c1.7-2,3.8-4,6.3-6c-0.9-1.8-1.9-2.8-3-2.9c-1-0.1-2.1,0-3.3,0.4c-1.2,0.4-2.8,1.1-4.8,2.1l0.5-3.7c2.7-1.3,4.8-2.2,6.3-2.6
	c1.5-0.4,3.4-0.5,5.6-0.2c0.9,0.1,2.4,0.8,4.6,2.1c5-3.4,9.1-5.9,12.2-7.5c3.1-1.6,5.5-2.3,7.3-2.1c3,0.4,5.4,2.3,7.2,5.6
	c1.7,3.3,2.3,6.8,1.8,10.5c-0.7,4.9-4.8,10.4-12.3,16.4c-2.3,1.8-4.1,3-5.4,3.6c-1.3,0.6-2.7,0.8-4.3,0.6c-1.3-0.2-2.6-0.5-3.7-1.1
	c-1.1-0.6-1.7-1.1-1.6-1.7c0.2-1.8,2.1-4.4,5.5-7.5C487.8,744.7,491.7,742.1,495.9,740z"/>
<path d="M446.8,731.1l0.2-1.4c0.4-2.2,0-4-1-5.4c-1.1-1.4-2.6-2.3-4.7-2.7c-2.1-0.4-4.5-0.3-6.9,0.1c-2.5,0.5-4.9,1.2-7.5,2.2
	c-2.5,1-5.6,2.4-9.4,4.2l0.6-3.4c5.8-4.2,11.2-7.2,16-9.1c4.8-1.9,9.5-2.5,13.9-1.7c3.9,0.7,6.8,2.5,8.6,5.4c1.8,2.9,2.4,6.6,1.6,11
	c-0.7,3.9-2.4,7.2-5.1,10c-2.7,2.8-6.8,5.5-12.3,8.2c-3.8,1.8-7.4,3.1-10.9,3.7c-3.5,0.7-6.6,0.8-9.1,0.3c-2.1-0.4-3.6-1-4.7-2
	c-1.1-1-1.5-2.3-1.2-3.9c0.4-2.3,1.8-4.4,4.3-6.4c2.5-1.9,6-3.7,10.7-5.2C434.7,733.4,440.3,732.1,446.8,731.1z M445.5,734.5
	c-4.2,0.6-7.8,1.6-11,3.1c-3.1,1.4-5.5,2.9-7.2,4.4c-1.6,1.5-2.5,2.7-2.7,3.5c-0.2,0.8,0.2,1.3,1.2,1.5c0.8,0.1,2.1-0.1,4.1-0.6
	c1.9-0.5,3.9-1.3,6-2.4c2.1-1,4-2.4,5.8-4C443.4,738.5,444.7,736.6,445.5,734.5z"/>
<path d="M415.5,723.3l-0.8,3.6c-2.9,1.8-5.1,3.4-6.7,4.8c1.3,0.7,2.2,1.4,2.7,2.1c0.5,0.7,0.6,1.7,0.4,2.8c-0.3,1.3-1.3,2.8-3.1,4.6
	c-1.7,1.7-3.8,3.3-6.1,4.6c-2.3,1.3-4.3,2.1-6,2.3c-0.7,0.1-1.3,0.1-1.8,0c-0.9-0.2-1.2-0.6-1.1-1.3c0.1-0.6,1.1-1.7,2.9-3.3
	c-9.2-0.7-15-1.4-17.4-1.9c-0.9-0.2-1.5-0.4-1.8-0.6c-0.7-0.5-1.1-1.4-1.3-2.7c-0.2-1.3-0.2-2.6,0.1-3.8c0.2-0.8,0.8-1.5,1.8-2.2
	c1-0.7,2.7-1.7,5-3c2.8-1.6,5.2-3.4,7.3-5.5c2.1-2.1,3.3-3.8,3.6-5c0.4-1.7-0.7-2.8-3.2-3.4c-2.7-0.6-7.8,0.7-15.3,3.8l0.8-3.7
	c4.3-2.4,7.8-4.3,10.6-5.6c2.8-1.3,5.2-2.3,7.5-3c2.2-0.7,4.1-0.8,5.7-0.5c1.8,0.4,3.2,1.4,4.1,3.1c0.9,1.7,1.1,3.8,0.5,6.5
	c-0.3,1.6-1.2,3.3-2.6,5.1c-1.4,1.8-3.3,3.7-5.6,5.6c-2.4,2-5,3.9-7.8,5.7c1.3,0,2.7,0.1,4.3,0.2c1.6,0.1,3.2,0.2,5,0.3
	c1.8,0.1,3.1,0.2,4,0.2C404.7,729.2,409.6,725.9,415.5,723.3z"/>
<path d="M371.9,716.7l-0.4,1.3c-13.8,6.9-23.3,11.8-28.5,14.6c-2.1,4.2-5,5.8-8.6,4.9c-0.9-0.2-1.8-0.7-2.7-1.4l-0.1-1.1
	c0.3-0.4,0.5-1,0.8-1.8c0.2-0.7,0.2-2,0.1-4.1c-0.1-2-0.2-3.7-0.2-5.1c0-1.4,0.2-2.8,0.6-4.4c0.6-2.4,1.9-4.5,3.8-6.3
	c1.9-1.8,4.3-3.4,7.3-4.8c3-1.4,6.7-2.6,11.2-3.7c-1.5-0.6-2.7-1.1-3.6-1.3c-1.8-0.5-3.8-0.6-6-0.4c-2.2,0.2-4.6,0.7-7.1,1.3
	c-2.5,0.7-5.4,1.6-8.8,2.9l1-3.6c6.7-3.1,12.6-5.2,17.6-6.4c5-1.2,9-1.4,12.2-0.5c4,1.1,7.4,3.5,10.1,7.3c1.6,2.3,2.4,4.2,2.4,6
	C372.9,711.8,372.6,714,371.9,716.7z M345.6,718.7l-1,8.2c3.4-1.8,10.4-5.2,21-10.1c-2.5-1.1-4-2.2-4.8-3.3c-0.7-1-1.6-2.9-2.8-5.6
	c-3.2,0.2-5.8,1-7.9,2.4c-2,1.3-3.5,3.5-4.3,6.5c-0.1,0.4-0.2,0.7-0.2,1C345.6,718.1,345.6,718.4,345.6,718.7z"/>
<path d="M292.6,721.9c1.1,0.3,2,1,2.7,2c0.7,1,0.9,2,0.6,3c-0.5,1.6-2,3-4.4,4.4c-2.4,1.4-4.6,1.7-6.5,1.1c-1.3-0.4-2.2-1.1-2.9-2
	c-0.6-0.9-0.8-2-0.4-3.3c0.5-1.5,1.9-2.9,4.3-4.3C288.4,721.6,290.6,721.3,292.6,721.9z M296,696.7l1.3-3.9
	c5.6-3.2,10.5-5.3,14.8-6.5c4.3-1.1,7.7-1.3,10.2-0.5c3.5,1.1,5.6,3.4,6.3,7c0.7,3.6,0.5,7.2-0.7,10.8c-0.4,1.4-1,2.7-1.8,3.8
	c-0.7,1.2-1.5,2.1-2.2,2.7c-0.7,0.7-2,1.7-3.9,3c-8.6,6-15.4,8.2-20.4,6.6c-2.6-0.8-3.6-2.1-3.1-3.7c0.4-1.1,1.8-2.7,4.2-4.5
	c2.5-1.9,4.5-3.2,6.2-3.8c4.7-1.8,7.7-3.2,9.2-4c1.5-0.8,2.5-2,3-3.5c0.4-1.3,0.2-2.5-0.7-3.7c-0.9-1.2-2.2-2.1-4-2.7
	c-2-0.6-4.4-0.7-7.2-0.2C304.4,694.2,300.7,695.2,296,696.7z"/>
<path d="M260.7,714.8l-2.7-1c-3.5,2.5-6.4,4.1-8.7,4.9c-2.3,0.7-4.6,0.7-6.9-0.2c-2.3-0.8-3.3-1.7-2.9-2.6c0.2-0.4,1.5-1.2,4-2.4
	c2.5-1.2,4.4-2.3,5.8-3.2c-1.4-0.7-2.6-1.2-3.6-1.8c-1.1-0.5-1.9-0.9-2.5-1.2c3.8-2.8,8.2-5.5,13.3-8.1c1.1,0.5,2.1,0.9,2.9,1.3
	c0.8,0.3,1.6,0.7,2.3,1c0.8,0.4,1.8,0.8,2.9,1.3c3.4-2.2,6.3-4.2,8.8-6.1c2.4-1.8,4.4-3.6,6-5.3c1.6-1.7,2.7-3.4,3.4-5.2
	c0.9-2.4,0.2-4-2.1-4.9c-1.6-0.6-3.9-0.6-7-0.2c-3.1,0.5-7.4,1.4-12.8,2.8l1.3-3.5c15.2-6.1,25.4-8.2,30.8-6.2
	c1.9,0.7,3.2,1.9,3.8,3.5c0.7,1.6,0.7,3.4-0.1,5.4c-0.5,1.3-1.4,2.7-2.7,4.3c-1.3,1.5-3.5,3.8-6.5,6.8c0.7-0.2,1.5-0.4,2.1-0.6
	c0.7-0.2,1.3-0.4,1.9-0.6c0.6-0.2,1.2-0.3,1.8-0.5c0.6-0.2,1.3-0.4,1.9-0.6l-1.4,3.6c-5.5,1.5-12.9,4.9-22,10.4
	c0.6,0.3,1.2,0.5,1.7,0.7c0.5,0.2,1.2,0.5,1.9,0.7c2.5,0.9,4.4,1.4,5.7,1.6c0.5,0.1,1.1,0.1,1.5,0.2c0.5,0,0.8,0.1,1,0.1
	c0.2,0.1,0.2,0.2,0.1,0.4c-0.4,1.2-1.9,2.6-4.5,4.3c-2.1,1.5-4,2.4-5.6,2.9c-1.6,0.5-3.3,0.6-5.2,0.3
	C266.4,716.7,263.9,716,260.7,714.8z"/>
<path d="M230.3,668.2l14.4-2.8c6.9-1.4,11.2-1.8,13-1c1.6,0.7,2.5,3,2.9,6.8c0.3,3.8,0,6.9-1.1,9.1c-0.9,1.9-2,3.4-3.4,4.4
	c-1.3,1-3.4,2.2-6.1,3.6c-3.8,1.8-7.3,3.1-10.5,4.1c-3.2,1-5.9,1.6-8.2,1.9c-2.3,0.3-3.7,0.3-4.4,0c-1.1-0.5-1.9-1.4-2.5-2.9
	c-0.6-1.4-0.6-2.6-0.2-3.6c0.3-0.6,1.3-1.4,3.1-2.3c1.8-0.9,4.4-1.9,7.8-3c3.4-1.1,8-2.2,13.7-3.3l2.5-2.3c0.6-0.4,1-0.8,1.1-1.2
	c0.4-0.9,0.1-1.6-1-2.1c-1.1-0.5-4.4-0.5-9.7,0c-5.3,0.5-11.4,1.7-18.2,3.6c-2.6,0.7-4.9,1.4-6.7,2.1c-1.8,0.7-3.5,1.3-5,1.9
	c-1.5,0.6-2.7,1-3.6,1.3c-0.9,0.2-1.7,0.3-2.2,0.1c-1.1-0.4-1.7-1.1-1.9-2.1c-0.2-1.1,0.1-2.4,0.8-4c0.4-0.9,1.4-1.8,3.1-2.8
	c1.6-0.9,4.5-2.5,8.7-4.6c4.2-2.1,8.5-4.3,12.8-6.7c4.3-2.3,8.9-5.1,13.7-8.3c-0.2,0-1.9,0.5-5.2,1.4c-3.3,0.9-6.7,1.8-10.3,2.7
	c-3.6,0.9-6.6,1.6-8.9,2.1c-2.3,0.5-5.1,1-8.5,1.6l1.6-3.4c7.8-2.5,14.9-4.9,21.4-7.3s11.6-4.4,15.2-5.9c3.6-1.6,5.8-2.5,6.4-2.7
	c1.6-0.7,3.1-1.4,4.5-2c1.4-0.6,2.5-1.1,3.3-1.4c0.8-0.3,1.5-0.4,1.8-0.2c0.8,0.4,1.3,1.4,1.3,3.1c0,1.7-0.2,3.1-0.7,4.2
	c-0.5,1-1.1,1.7-1.9,2.3C257.8,652.5,246.8,659.1,230.3,668.2z"/>
<path d="M137.8,655l15,4.6c2.3,0.8,3.7,1.4,4.3,1.9c1,0.9,1.5,1.8,1.5,2.8c0,1-0.5,2-1.6,3.2c-1.2,1.3-2.9,2.5-5.1,3.7
	c-2.2,1.1-4.1,1.7-5.7,1.8c-1.7,0.1-4.8-0.6-9.4-2.1c-4.6-1.4-10-3.4-16-6c-6-2.6-12-5.6-17.9-9c-5.9-3.4-11-7-15.2-10.6
	c-2.9-2.6-4.7-4.8-5.4-6.8c-0.7-2,0.5-4.7,3.5-8c1.6-1.8,4.2-3.2,7.7-4.1c3.5-0.9,7.2-1.5,11.2-1.8c4-0.3,11.2-0.6,21.6-1.1
	c-3.4-2.2-5.8-3.9-7.3-5c-1.5-1.1-4.3-3.1-8.5-6.1c-9.3,1.5-16.7,2.7-22.3,3.5c-5.6,0.8-10.3,1.4-14.1,1.9c-3.8,0.5-6,0.7-6.7,0.7
	c-1.2,0.1-2-0.2-2.3-0.7c-0.3-0.5,0-1.3,0.9-2.3c1-1.1,2-2,3-2.4c0.9-0.5,2-0.8,3.3-1c1.2-0.2,1.9-0.3,2-0.3c1.9-0.4,4.6-0.9,8-1.4
	c3.4-0.5,6.7-1,10-1.6c3.3-0.5,7.1-1.2,11.4-2.1c-3.6-3.4-6.9-7-9.9-10.8l18.2-2.4c2.2,2.4,5.4,5.4,9.5,9c2.5-0.8,4.5-1.4,5.9-1.9
	c1.4-0.5,2.7-1,3.8-1.5c1.2-0.5,2.1-1.1,2.7-1.9c0.4-0.4,0.8-1.2,1.1-2.2c0.4-1,0.6-1.6,0.7-1.7c0.5-0.6,1.5-0.7,3.1-0.5
	c1.5,0.2,3.2,0.7,4.9,1.4c1.7,0.7,3,1.3,3.7,2c1.2,1.1,1.1,2.4-0.3,4c-2.9,3.2-9,6-18.1,8.3c5.6,4.2,12.2,8.8,19.9,13.8
	c3.9-0.5,7.6-1,10.9-1.5c3.4-0.6,6.2-1.1,8.4-1.5c2.2-0.5,3.8-0.7,4.7-0.7c0.9,0,1.6,0.2,2.2,0.7c1,0.8,1.5,1.9,1.5,3.2
	c0,0.5,0,1-0.2,1.3c-0.2,0.4-0.4,0.7-0.7,1c-0.3,0.3-0.6,0.6-0.8,0.9c-0.3,0.3-1,0.6-2,0.9c-1,0.3-3.2,0.6-6.6,1.1
	c-3.4,0.5-5.9,0.9-7.5,1.2c0.9,0.7,2.1,1.6,3.5,2.8c1.7,1.5,2.9,3,3.5,4.5c0.6,1.5,0.6,2.6-0.2,3.4c-0.8,0.9-2,1.6-3.4,2.1
	c-1.5,0.5-3,0.7-4.5,0.6c-1.5-0.1-2.7-0.5-3.6-1.3c-0.6-0.5-1.2-1.3-1.7-2.3l-15.3-8.6c-13.1,0.3-23.1,0.8-30.1,1.5
	c-7,0.7-10.9,1.6-11.9,2.7c-0.6,0.6-0.8,1.3-0.8,2.1c0,0.8,0.3,1.6,0.8,2.4c0.5,0.8,1.2,1.7,2.2,2.5c1.1,1,3.1,2.2,5.9,3.8
	c2.8,1.6,6.3,3.3,10.5,5.2c4.2,1.9,9.5,4.1,16,6.7c4.8,1.9,7.3,2.7,7.7,2.4c0.4-0.4,0.3-0.9-0.1-1.4c-0.4-0.5-1-1.2-1.7-1.9
	c-0.7-0.7-1-1.2-0.9-1.3c0.1-0.1,0.4-0.1,1,0C136.1,654.5,136.8,654.7,137.8,655z"/>
<path d="M90.1,576.1c-7.7-3.7-14.1-7.8-19.2-12.3c-5.1-4.5-8.4-8.3-9.9-11.4c-0.4-0.8-0.5-1.7-0.3-2.7c0.2-1,0.7-1.9,1.2-2.7
	c0.6-0.8,1.1-1.3,1.4-1.5c0.6-0.3,1.2-0.2,1.8,0.2c0.6,0.4,1.4,1.2,2.5,2.4c0.4-0.5,0.9-1.2,1.6-2.1c0.6-0.8,1.2-1.5,1.6-2
	c0.4-0.5,0.8-0.8,1.2-1c0.8-0.4,2.8-0.2,6,0.6c3.2,0.8,5.5,1.4,6.9,1.6c1.4,0.3,2.9,0,4.5-0.7c2.5-1.2,3.1-3.2,1.8-5.8
	c-1.4-2.7-5.8-6-13.1-9.7l3.1-1.5c14.5,5.3,22.9,10.1,25,14.4c0.8,1.5,0.9,2.8,0.3,3.9c-0.5,1.1-1.7,2-3.4,2.8
	c-2.7,1.3-7.2,2.1-13.4,2.3c8.4,3.1,14.4,5.4,18.2,7.1c3.7,1.7,6,3.4,6.9,5.2c0.4,0.9,0.3,2.3-0.3,4.2c-0.6,1.9-1.7,3.9-3.3,5.9
	c-1.6,2-3.4,3.5-5.7,4.6c-1.6,0.8-3,1.2-4.3,1.4c-1.3,0.2-2.7,0-4.3-0.5C95.3,578.3,93,577.4,90.1,576.1z M70.3,550.6
	c9.2,8.3,16.2,13.9,21.2,16.8c5,3,9,3.7,12,2.3c1.1-0.5,1.9-1.2,2.4-1.9c0.5-0.8,0.5-1.5,0.2-2.3c-0.2-0.4-0.8-1.1-1.9-2
	c-4.2-3.1-8.8-5.5-13.9-7.3C85.2,554.4,78.6,552.6,70.3,550.6z"/>
<path d="M76.3,476.9l3.8-0.2c5.2,4.7,9.1,8.7,11.8,11.9c2.7,3.2,4.1,5.9,4.2,8.2c0.1,2.1-0.4,4.1-1.4,5.9c-1,1.8-2.5,3.4-4.4,4.8
	c-1.9,1.5-4.5,3.2-7.9,5.2c2.5,2.1,4.8,4.1,6.9,5.8c2.1,1.7,3.6,2.9,4.3,3.6c0.7,0.7,1.1,1.3,1.1,1.9c0,1.2-0.6,2.1-1.9,2.6
	c-1.3,0.6-3.2,0.9-5.7,1c-3.4,0.1-6.7-0.2-9.9-1c-3.2-0.8-6.3-2-9.4-3.7c-3.1-1.6-6.4-3.8-10-6.4c-3.6-2.6-7.4-5.6-11.3-8.9
	c-5.4-4.6-9.9-8.5-13.4-11.8c-3.5-3.3-6.1-6.2-7.9-8.7c-1.8-2.5-2.7-4.6-2.8-6.3c-0.1-2.1,0.7-3.2,2.3-3.2c1.4-0.1,6.6,3.6,15.7,11
	c9,7.4,21.4,18.2,37.1,32.4l4.9-0.2c-9.6-9.5-16.8-17.3-21.6-23.1c-4.7-5.9-7.2-10.5-7.3-13.8c-0.1-1.4,0.6-2.4,1.9-3.2
	c1.4-0.8,2.9-1.2,4.8-1.3c3.7-0.2,7.2,1.5,10.6,5.1c3.3,3.5,7.2,9,11.6,16.5c1.7-1.4,2.8-2.6,3.6-3.6c0.7-1,1.1-2.3,1-3.9
	c-0.1-1.4-0.5-2.8-1.4-4.3c-0.9-1.5-1.9-3.1-3.2-4.7C81.3,482.6,79.2,480.2,76.3,476.9z M80.3,502.7c-1-1.6-2.6-3.6-4.7-6
	c-2.1-2.4-4.3-4.4-6.5-6.1c-2.2-1.7-4-2.5-5.5-2.4c-0.6,0-0.9,0.3-0.9,1c0.1,1.7,1.6,4.5,4.5,8.4c2.9,3.9,6.7,7.7,11.1,11.4
	C78.4,507.3,79,505.2,80.3,502.7z"/>
<path d="M87.3,442.7c4.1,8.7,6.8,15.2,8.3,19.4c1.5,4.2,1.8,7.3,0.9,9.2c-0.7,1.5-1.9,2.7-3.5,3.5c-1.7,0.8-3.6,1.2-5.8,1.1
	c-2.2-0.1-4.3-0.6-6.4-1.5c-1.4-0.6-2.6-1.3-3.6-2.1c-1-0.8-1.9-1.9-2.9-3.3c-1-1.4-1.9-3.2-2.9-5.2c-0.9-2.1-2-4.5-3-7.4
	c-0.7-1.7-1.3-3.2-1.7-4.4c-0.5-1.2-0.7-2.2-0.6-3.1c0.1-0.9,0.5-2.2,1.3-4c0.6-1.3,1.3-2.4,2.1-3.5c0.8-1,1.4-1.5,1.7-1.3
	c0.6,0.3,1.5,1.3,2.6,3.2c1.1,1.9,2.2,4.6,3.4,8.3c1.2,3.6,2.1,7.7,2.8,12.1c1.7,1.6,3.1,2.7,4.2,3.2c1.5,0.6,2.5,0.3,3.1-1
	c0.2-0.5,0.2-1.4,0-2.9c-0.2-1.4-0.7-3.9-1.6-7.5c-0.8-3.5-1.6-6.7-2.2-9.5c-0.5-2.1-1.4-4.6-2.9-7.7c-1.4-3.1-2.4-5.5-3-7.3
	c-1.4-4.1-2.2-6.9-2.6-8.4c-0.3-1.4-0.3-2.7,0.2-3.7c0.4-1,1-1.5,1.7-1.6c0.7-0.1,1.8,0.2,3.4,0.9c0.7,0.3,1.3,0.7,1.7,1
	c0.4,0.4,0.8,0.9,1.3,1.7c0.5,0.8,1.3,2.4,2.6,4.7c1.2,2.3,2.7,5.1,4.4,8.3c0.9,1.7,2,3.4,3.2,4.9c1.3,1.6,2.3,2.5,3.2,2.9
	c1.8,0.8,3.1,0.3,3.8-1.3c0.6-1.4,0.8-3.2,0.7-5.4c-0.2-2.2-0.7-5.7-1.6-10.6l3.5,1.5c1.7,6.3,2.8,11,3.5,13.9
	c0.7,3,1.1,5.5,1.3,7.5c0.1,2-0.1,3.8-0.8,5.3c-1.5,3.4-4,4.3-7.5,2.8c-1.3-0.6-2.9-1.8-4.7-3.8C93,449.8,90.5,446.8,87.3,442.7z"/>
<path d="M128.3,405.8c1.1-7.5,2-14,2.7-19.4c0.7-5.4,1.2-9.7,1.6-12.9c0.4-3.1,0.8-5.8,1.2-8.1c0.4-2.3,0.8-3.6,1.2-4
	c0.7-0.7,2-0.8,4-0.2c2,0.6,3.3,1.3,4.1,2.1c0.5,0.5,0.7,2.7,0.6,6.5c-0.1,3.8-0.1,6.8,0,8.9c0.1,2.1,0.8,3.7,2,4.9
	c0.7,0.7,1.6,1,2.6,0.9c1-0.1,1.9-0.6,2.7-1.3c0.9-0.9,1.6-2.4,2.1-4.4c0.5-2,1.1-5.4,1.7-10.1l2.9,2.8c-0.5,4.9-1.1,9.2-1.8,12.9
	c-0.6,3.8-1.4,6.9-2.3,9.3c-0.9,2.4-1.9,4.1-3,5.2c-1,1-2.1,1.4-3.4,1.5c-1.3,0-2.4-0.4-3.3-1.3c-0.9-0.9-1.6-2-2.2-3.3
	c-0.6-1.3-1.1-3-1.6-5c-0.5-2-1-4.6-1.5-7.6c-0.5-3.1-1-5.8-1.4-8.4c-1,5.3-1.7,10.3-2.1,14.7c-0.4,4.5-0.7,8.2-0.7,11.3
	c0,3.1-0.1,5.5-0.1,7.2c-0.1,3.4-0.9,5.8-2.4,7.3c-1.6,1.6-3.5,1.4-5.4-0.5c-0.8-0.8-1.6-2.8-2.5-6.1c-0.8-3.3-1.7-7.6-2.7-13
	c0-0.4-0.3-0.8-0.7-1.3c-0.5-0.5-1.1-0.5-1.7,0.1c-0.7,0.7-1.1,2.2-1.3,4.6c-0.2,2.4-0.4,7.2-0.6,14.3c0,2,0.1,4.4,0.4,7.3
	c0.3,2.9,0.4,4.8,0.4,5.9c0,1.1-0.3,1.9-0.9,2.5c-1.1,1.1-3.1,1.3-5.7,0.6c-2.7-0.7-5.2-2.2-7.5-4.5c-1.7-1.6-2.8-3.4-3.3-5.2
	c-0.6-1.8-1.1-4.3-1.5-7.4c-0.5-4.6-0.6-8.2-0.4-10.6c0.2-2.4,1.1-4.3,2.6-5.8c0.9-0.9,1.8-1.5,2.8-1.8c0.9-0.3,1.7-0.2,2.2,0.3
	c0.6,0.6,0.9,2,1,4.4c0.1,2.4,0,5.1-0.4,8.2c-0.2,1.7-0.1,3.5,0.2,5.5c0.3,2,0.7,3.2,1.2,3.7c0.7,0.7,1.4,0.7,2.1,0.1
	c0.5-0.5,1-2.8,1.3-6.8c0.3-4,0.6-8.3,1-13.1c0.4-4.7,1-8.9,1.7-12.5c0.8-3.6,1.9-6.2,3.5-7.7c0.9-0.9,2-1.4,3.2-1.4
	c1.2,0,2.3,0.4,3.2,1.3c0.6,0.6,1.2,2.1,1.8,4.5c0.6,2.4,1.1,5.7,1.6,9.7C127.5,394.8,127.9,399.8,128.3,405.8z"/>
<path d="M195,345.5l2.1,3.1c-1.2,3.5-2.4,6-3.4,7.5c-1.1,1.6-3.1,3.2-5.9,4.9c-1.7,7.9-4.3,13.1-8,15.4c-2.1,1.3-4.4,2-6.9,1.9
	c-2.5-0.1-4.9-0.8-7.3-2.1c-2.4-1.3-4.3-3.2-6-5.7c-1.3-2-2-4.7-2-8.2c0-3.5,0.5-7,1.6-10.8c1.1-3.7,2.7-7.2,4.7-10.3
	c2-3.1,4.3-5.5,6.7-7.1c1.8-1.1,3.3-1.8,4.6-2c1.3-0.2,2.2,0.1,2.8,0.9c0.4,0.6,0.5,1.6,0.1,3c1.6-0.7,2.8-0.9,3.7-0.6
	c0.9,0.2,1.9,1.1,2.9,2.7c1,1.5,1.8,3.7,2.5,6.5c0.7,2.8,0.9,5.7,0.8,8.6l1.6,0.2l0.8-0.5c0.6-0.4,1.2-0.9,1.6-1.6
	c0.4-0.7,0.8-1.3,1.1-1.9C193.4,348.9,194,347.6,195,345.5z M175.3,340.6c-2.1,3.5-3.8,6.7-5.1,9.3c-1.4,2.7-2.4,5.2-3,7.4
	c-0.7,2.3-0.8,4.2-0.5,5.9c1.4,4.1,2.2,6.3,2.4,6.6c1.4,2.1,3.8,2,7.2-0.2c1.6-1,3.5-3.9,5.8-8.6c-1.6-1.1-2.9-2.3-3.7-3.6
	c-1.3-2-2.2-4.3-2.5-7C175.3,347.7,175.1,344.4,175.3,340.6z"/>
<path d="M233.8,315c-3.7,10-4.8,16.3-3.5,18.8c0.7,1.4,1.8,1.8,3.2,1.1c1.2-0.6,2.4-1.8,3.7-3.8c1.3-1.9,3.3-5.2,5.9-9.7l1.8,3.4
	c-3.3,7.5-5.9,13-7.8,16.5c-2,3.6-3.9,5.8-5.8,6.8c-3.3,1.6-5.8,0.6-7.7-3c-0.5-1.1-0.9-2.2-1-3.4c-0.1-1.2-0.1-2.6,0-4
	c0.1-1.5,0.4-3.6,0.7-6.4c0.4-2.8,0.8-6,1.3-9.5c-1.8,2.1-3.6,5.4-5.6,10c-1.3,2.9-2.3,5.5-3,7.9c-0.7,2.4-1.5,5-2.2,7.9
	c-0.8,2.9-1.4,4.8-1.8,5.9c-0.5,1.1-1.1,1.8-2,2.2c-1.3,0.6-3,0.1-5.2-1.6c-2.2-1.7-4.1-4-5.6-7c-0.9-1.8-1.4-3.4-1.5-4.7
	c0-1.3,0.2-3.2,0.7-5.9c0.9-4.9,2-8.7,3.1-11.3c1.1-2.6,2.6-4.4,4.5-5.3c1.3-0.6,2.4-1,3.4-1c1,0,1.6,0.4,2,1.1
	c0.2,0.3,0.2,0.7,0.2,1.2c-0.1,0.5-0.1,1-0.3,1.4c-0.1,0.4-0.5,1.3-1,2.7c-3.3,8.9-4.5,14.3-3.6,16c0.5,1,1.1,1.3,1.9,0.9
	c0.5-0.2,1.1-1.3,1.8-3.3c0.7-2,1.6-4.5,2.7-7.7c1.1-3.2,2.6-6.6,4.4-10.3c1.8-3.7,4.1-7.6,6.8-11.5c1.5-2.3,2.9-3.8,4.3-4.4
	c0.6-0.3,1.6,0.1,3,1.3c1.4,1.2,2.4,2.5,3.2,4C235,311.1,234.8,312.6,233.8,315z"/>
<path d="M293.2,302.3l1.4,3.5c-2.8,6.3-5.3,11.3-7.5,14.9c-2.2,3.6-4.4,5.8-6.5,6.6c-2,0.8-4.1,1-6.1,0.6c-2-0.4-4.1-1.2-6.1-2.5
	c-2-1.3-4.5-3.1-7.6-5.6c-1.2,3-2.3,5.8-3.3,8.3c-0.9,2.6-1.6,4.3-2,5.1c-0.4,0.9-0.9,1.4-1.4,1.6c-1.1,0.4-2.2,0.1-3.1-0.9
	c-1-1-1.9-2.7-2.8-4.9c-1.3-3.1-2-6.3-2.3-9.6c-0.3-3.2-0.1-6.6,0.5-10c0.6-3.4,1.5-7.2,2.9-11.4c1.4-4.2,3-8.7,4.9-13.4
	c2.6-6.5,4.9-12,7-16.3c2.1-4.3,4-7.7,5.8-10.2c1.8-2.5,3.5-4,5.1-4.7c2-0.8,3.3-0.4,3.9,1.1c0.5,1.3-1.3,7.3-5.4,18.1
	c-4.1,10.8-10.5,25.8-19,45l1.8,4.5c6-12.1,11.1-21.3,15.2-27.6c4.1-6.3,7.7-10.1,10.9-11.3c1.3-0.5,2.5-0.2,3.7,0.7
	c1.2,1,2.2,2.3,2.8,4c1.4,3.4,0.9,7.2-1.4,11.5c-2.3,4.2-6.3,9.6-12,16.2c1.9,1.1,3.4,1.8,4.7,2.1c1.2,0.3,2.6,0.2,4-0.3
	c1.3-0.5,2.5-1.4,3.7-2.7c1.2-1.3,2.4-2.8,3.5-4.5C289.3,308.8,291,306.1,293.2,302.3z M269.7,314.5c1.2-1.5,2.6-3.6,4.3-6.3
	c1.6-2.7,2.8-5.4,3.7-8c0.9-2.6,1-4.6,0.5-5.9c-0.2-0.6-0.6-0.7-1.2-0.5c-1.6,0.6-3.8,2.9-6.6,6.9c-2.8,4-5.3,8.7-7.3,14.1
	C264.7,314.2,266.9,314.1,269.7,314.5z"/>
<path d="M300.9,289.5c4.9-6.9,10-12.4,15.4-16.7c5.3-4.2,9.7-6.9,13-7.9c0.9-0.3,1.8-0.2,2.8,0.2c1,0.4,1.8,0.9,2.5,1.6
	c0.7,0.7,1.1,1.2,1.2,1.6c0.2,0.6,0.1,1.2-0.4,1.7c-0.5,0.5-1.4,1.2-2.8,2c0.5,0.5,1.1,1.1,1.8,1.8c0.7,0.7,1.3,1.4,1.8,1.8
	c0.4,0.5,0.7,0.9,0.8,1.4c0.3,0.9-0.3,2.8-1.6,5.7c-1.3,3-2.2,5.1-2.7,6.5c-0.5,1.4-0.5,2.8,0,4.4c0.8,2.6,2.7,3.5,5.6,2.6
	c3-0.9,6.9-4.7,11.8-11.3l1,3.3c-7.6,13.3-13.7,20.6-18.4,22.1c-1.7,0.5-3,0.4-4-0.3c-1-0.7-1.8-1.9-2.3-3.7
	c-0.9-2.8-1-7.3-0.2-13.3c-4.4,7.7-7.7,13.2-10,16.5c-2.3,3.4-4.4,5.3-6.3,5.9c-0.9,0.3-2.3,0-4.1-1c-1.8-0.9-3.6-2.3-5.4-4.1
	c-1.8-1.8-3-3.9-3.7-6.2c-0.5-1.7-0.8-3.1-0.7-4.4c0-1.2,0.4-2.6,1.1-4.1C297.8,294.2,299,292.1,300.9,289.5z M329.6,274.3
	c-9.7,7.6-16.5,13.6-20.2,18c-3.8,4.4-5.2,8.2-4.2,11.3c0.4,1.1,0.9,2,1.6,2.6c0.7,0.6,1.5,0.8,2.3,0.5c0.5-0.1,1.2-0.6,2.3-1.5
	c3.8-3.6,6.9-7.7,9.5-12.4C323.4,288.1,326.3,281.9,329.6,274.3z"/>
<path d="M384.1,276.8l1,4c-3,5.6-6.1,9.9-9.1,13.1c-3,3.2-5.8,5.1-8.4,5.7c-3.5,0.9-6.6,0-9.1-2.7c-2.5-2.7-4.3-5.9-5.2-9.6
	c-0.4-1.4-0.5-2.8-0.5-4.2c0-1.4,0.2-2.5,0.4-3.5c0.3-0.9,0.8-2.5,1.7-4.6c4.1-9.5,8.7-14.9,13.8-16.2c2.6-0.7,4.2-0.1,4.6,1.6
	c0.3,1.2-0.1,3.2-1.2,6.1c-1.1,2.9-2.1,5-3.2,6.4c-3,4-4.9,6.7-5.7,8.2c-0.8,1.5-1.1,3-0.7,4.5c0.3,1.3,1.2,2.2,2.6,2.8
	c1.4,0.6,3,0.6,4.9,0.2c2-0.5,4.1-1.7,6.2-3.5C378.3,283.3,381,280.6,384.1,276.8z M373.5,253.7c-1.1,0.3-2.2,0.2-3.3-0.3
	c-1.1-0.4-1.9-1.2-2.1-2.2c-0.4-1.6,0-3.6,1.4-6c1.3-2.4,2.9-3.8,4.9-4.3c1.3-0.3,2.5-0.3,3.5,0.2c1,0.5,1.7,1.3,2,2.6
	c0.4,1.6,0,3.5-1.3,5.8C377.2,251.8,375.5,253.2,373.5,253.7z"/>
<path d="M497,258.4c-1.4-1.5-3.2-2.8-5.7-3.9c-2.4-1-5.1-1.8-7.9-2.2s-5.8-0.6-8.9-0.6c-9.1,0.2-17.7-1-26-3.6
	c-0.7-0.2-1.5-0.7-2.4-1.6c-0.9-0.8-1.4-1.7-1.5-2.6c-0.5-3.2-0.3-6.6,0.5-10.1c0.8-3.5,2.1-6.3,3.8-8.4c2.8-3.5,8.3-7.1,16.4-10.6
	c8.1-3.5,17.5-6.1,28.1-7.6c6.3-0.9,11.3-1.2,14.9-0.9c3.6,0.3,5.5,1.3,5.8,3c0.4,2.8,0.3,5-0.4,6.6c-0.7,1.6-1.5,2.8-2.4,3.4
	c-1,0.7-2.7,1.6-5.1,2.8c-2.7,1.2-4.9,2.4-6.8,3.6c-1.9,1.2-3.5,2.3-4.9,3.3c-1.3,1-2.2,1.6-2.5,1.6c-0.4,0.1-0.7-0.1-0.7-0.3
	c-0.1-0.6,0.5-1.7,1.9-3.2c1.4-1.5,3.1-2.9,5.3-4.2c2.3-1.4,3.4-2.3,3.3-2.6c-0.1-0.5-1.5-0.5-4.1-0.1c-8.1,1.2-15.6,2.9-22.3,5.1
	c-6.7,2.2-11.9,4.6-15.6,7.2c-3.7,2.6-5.4,4.9-5.1,7c0.2,1.3,1.2,2.1,2.9,2.4c1.7,0.3,5.5,0.7,11.3,1.1c5.8,0.4,11.1,1.1,15.8,2.1
	c6.7,1.4,11.8,3,15.3,5.1c3.5,2,5.4,4.6,5.9,7.6c0.3,2.1,0,4.3-0.9,6.6c-0.9,2.3-2.4,4.5-4.4,6.6c-2.1,2.1-4.5,4-7.4,5.6
	c-2.5,1.3-5.6,2.7-9.4,4c-3.8,1.4-8,2.7-12.5,3.8c-4.5,1.1-8.9,2-13.1,2.6c-7.7,1.1-14,1.4-18.9,0.9c-4.9-0.5-7.5-2-7.9-4.5
	c-0.2-1.1,0.4-2.9,1.6-5.5c1.2-2.6,2.9-4.4,4.9-5.6c1.8-0.9,3.6-1.5,5.3-1.9c1.7-0.4,2.7-0.3,2.7,0.1c0,0.1,0,0.2-0.1,0.4
	c-0.1,0.1-0.3,0.2-0.4,0.3c-0.2,0.1-0.3,0.2-0.5,0.3c-0.8,0.4-1.5,0.8-2,1c-0.5,0.2-0.9,0.5-1.2,0.7c-0.3,0.2-0.4,0.5-0.4,0.8
	c0.1,0.8,4.7,0.5,13.9-0.8c7.9-1.2,14.4-2.4,19.4-3.6c5-1.2,9.3-2.7,13-4.6C490.9,263.4,494.2,261.1,497,258.4z"/>
<path d="M562.4,250.5l0.3,3.7c-2.7,2.5-4.9,4.2-6.6,5.1c-1.7,0.9-4.2,1.4-7.6,1.6c-5.2,6.2-10,9.6-14.4,10c-2.5,0.2-4.8-0.3-7-1.4
	c-2.2-1.2-4-2.9-5.4-5.2c-1.4-2.3-2.3-4.9-2.6-7.8c-0.2-2.4,0.5-5.1,2.1-8.2c1.6-3.1,3.8-6,6.6-8.8c2.8-2.8,5.8-5.1,9-6.9
	c3.3-1.9,6.4-2.9,9.3-3.2c2.1-0.2,3.7-0.1,5,0.4c1.2,0.4,1.9,1.1,2,2.1c0.1,0.7-0.4,1.6-1.3,2.7c1.7,0.1,2.9,0.5,3.6,1.2
	c0.7,0.6,1.1,1.9,1.3,3.7c0.2,1.8-0.1,4.1-0.9,6.9c-0.7,2.8-1.9,5.5-3.4,8l1.3,0.9l1-0.1c0.8-0.1,1.5-0.3,2.2-0.7
	c0.7-0.4,1.3-0.8,1.9-1.2C559.4,252.8,560.6,251.9,562.4,250.5z M547.3,237.1c-3.5,2.2-6.5,4.2-9,5.9c-2.5,1.7-4.5,3.5-6.2,5.2
	c-1.7,1.7-2.7,3.4-3.2,5c-0.7,4.3-1.1,6.6-1,6.9c0.2,2.5,2.4,3.5,6.5,3.1c1.9-0.2,5-1.8,9.2-5c-0.9-1.7-1.5-3.3-1.6-4.9
	c-0.2-2.3,0.1-4.8,1.1-7.3C543.9,243.4,545.4,240.4,547.3,237.1z"/>
<path d="M603.2,248.3l0.2,3.9c-2.5,2.4-4.5,4.1-5.8,5.2c-1.3,1.1-3.1,2.2-5.5,3.4c0.2,3.4,0.2,6.3-0.1,8.7c-0.3,2.4-1,5-2.2,7.7
	c-1.2,2.7-3.2,5.7-5.9,9c-2.7,3.3-5.3,5.8-8,7.6c-2.7,1.8-4.8,2.8-6.3,2.9c-1.7,0.1-3.4-1-5-3.3c-1.6-2.3-2.5-5.2-2.7-8.8
	c-0.2-3.4,0.3-7,1.4-10.8c1.2-3.8,3-8.8,5.5-14.9c-2.3-2.3-3.5-4.6-3.7-6.9c-0.1-1.9,0.4-3.4,1.5-4.5c1.1-1.1,2.7-2.1,4.8-3
	c1.4-2.1,2.8-4,4.1-5.5c1.3-1.5,3.1-3.5,5.4-6.1c4.1-9.8,8.9-19.4,14.6-28.9c1.6-2.6,2.7-4.4,3.4-5.3c0.7-0.9,1.5-1.4,2.3-1.5
	c0.8,0,1.4,0.4,2.1,1.3c0.6,0.9,1,2.1,1.1,3.6c0.1,1.8,0,3.5-0.4,5.1c-0.4,1.6-1,3.1-1.7,4.7c-0.8,1.6-1.9,3.5-3.3,5.8
	c-1.4,2.2-2.3,3.6-2.6,4.2c-2,3.4-4.3,7.2-6.9,11.3c-2.6,4.1-4.6,7.4-6.1,9.8c-1.5,2.4-2.5,4.2-3.2,5.4c2.5,1.6,4.5,3,6,4.2
	c1.5,1.2,2.8,2.6,3.9,4.3c1.5-0.6,2.8-1.2,4-2c1.2-0.7,2.6-1.7,4.2-3C600.1,250.6,601.7,249.4,603.2,248.3z M584.2,264.4l-0.2-1.2
	c-1.2,0.2-2.2,0.3-3,0.3c-0.8,0-1.6-0.1-2.7-0.3c-1-0.2-1.8-0.4-2.4-0.6c-0.6-0.2-1.2-0.4-1.9-0.6c-3,7.1-4.3,13-4,17.6
	c0.1,2.3,0.7,4.2,1.6,5.7c0.9,1.6,1.9,2.3,3,2.2c1.2-0.1,2.6-1,4.2-2.8c1.7-1.8,3-4.4,4.1-7.9C584.1,273.4,584.5,269.3,584.2,264.4z
	"/>
<path d="M629.4,218.5l2.9-0.1c2.3-3.6,4.3-6.2,6.2-7.7c1.9-1.5,4-2.3,6.5-2.4c2.4-0.1,3.7,0.4,3.7,1.3c0,0.4-0.9,1.7-2.8,3.7
	c-1.9,2-3.3,3.7-4.2,5.1c1.5,0.1,2.9,0.2,4.1,0.3c1.2,0.1,2.1,0.1,2.8,0.2c-2.4,4-5.5,8.2-9.2,12.4c-1.2,0-2.3-0.1-3.1-0.1
	c-0.8,0-1.7-0.1-2.6-0.1c-0.9,0-1.9-0.1-3.2-0.1c-2.3,3.3-4.2,6.3-5.8,8.9c-1.5,2.6-2.7,5-3.5,7.1c-0.8,2.2-1.2,4.2-1.1,6.1
	c0.1,2.6,1.3,3.8,3.8,3.8c1.7,0,3.9-0.9,6.6-2.5c2.7-1.6,6.3-4,10.8-7.3l0.1,3.7c-11.7,11.3-20.4,17-26.2,17.1
	c-2,0.1-3.6-0.5-4.9-1.8c-1.3-1.3-1.9-2.9-2-5c0-1.4,0.3-3,0.9-5c0.6-1.9,1.8-4.8,3.5-8.7c-0.6,0.5-1.2,0.9-1.7,1.4
	c-0.5,0.4-1,0.9-1.5,1.2c-0.5,0.4-0.9,0.8-1.5,1.2c-0.5,0.4-1,0.8-1.6,1.2l-0.1-3.9c4.6-3.4,10.1-9.3,16.4-17.8c-0.7,0-1.3,0-1.9,0
	c-0.6,0-1.3,0-2.1,0c-2.6,0.1-4.6,0.3-5.9,0.6c-0.5,0.1-1,0.3-1.5,0.4c-0.5,0.1-0.8,0.2-1,0.2c-0.2,0-0.3-0.1-0.3-0.3
	c0-1.2,0.8-3.1,2.6-5.6c1.4-2.1,2.8-3.7,4-4.8c1.3-1,2.9-1.8,4.7-2.2C623.4,218.8,626,218.6,629.4,218.5z"/>
<path d="M668.4,218.2l2.9,0c2.4-3.5,4.6-6,6.5-7.5c1.9-1.5,4.1-2.2,6.6-2.2c2.5,0,3.7,0.5,3.7,1.4c0,0.4-1,1.7-2.9,3.6
	c-1.9,2-3.4,3.6-4.4,5c1.5,0.2,2.9,0.3,4.1,0.4c1.2,0.1,2.1,0.2,2.8,0.3c-2.6,3.9-5.8,8-9.7,12.1c-1.3-0.1-2.3-0.1-3.2-0.2
	c-0.9-0.1-1.7-0.1-2.6-0.2c-0.9-0.1-1.9-0.1-3.2-0.2c-2.4,3.2-4.5,6.1-6.1,8.7c-1.7,2.6-2.9,4.9-3.8,7c-0.9,2.1-1.3,4.1-1.3,6
	c0,2.6,1.2,3.9,3.7,3.9c1.7,0,3.9-0.7,6.7-2.2c2.8-1.5,6.5-3.8,11.1-6.9l0,3.7c-12.2,10.9-21.2,16.3-27,16.3c-2,0-3.6-0.7-4.9-2
	c-1.2-1.3-1.8-3-1.8-5c0-1.4,0.4-3,1.1-4.9c0.7-1.9,2-4.8,3.8-8.6c-0.6,0.4-1.2,0.9-1.8,1.3c-0.6,0.4-1.1,0.8-1.6,1.2
	c-0.5,0.4-1,0.7-1.5,1.1c-0.5,0.4-1.1,0.8-1.6,1.2l0-3.9c4.7-3.3,10.5-9,17.2-17.2c-0.7,0-1.3-0.1-1.9-0.1c-0.6,0-1.3,0-2.1,0
	c-2.7,0-4.6,0.1-5.9,0.4c-0.5,0.1-1,0.2-1.5,0.4c-0.5,0.1-0.8,0.2-1,0.2c-0.2,0-0.3-0.1-0.3-0.3c0-1.2,0.9-3.1,2.8-5.5
	c1.5-2.1,2.9-3.6,4.2-4.6c1.3-1,2.9-1.7,4.9-2C662.3,218.3,664.9,218.2,668.4,218.2z"/>
<path d="M693.5,249.5l0,1.4c-0.1,2.2,0.5,3.9,1.8,5.2c1.3,1.3,2.9,1.9,5,2c2.2,0.1,4.5-0.3,6.8-1.1c2.4-0.8,4.7-1.9,7.1-3.2
	c2.4-1.4,5.2-3.2,8.6-5.5l-0.1,3.4c-5.2,4.9-10,8.7-14.5,11.3c-4.5,2.6-9,3.8-13.5,3.7c-4-0.1-7.1-1.5-9.3-4.1
	c-2.2-2.6-3.3-6.2-3.2-10.7c0.1-3.9,1.3-7.4,3.6-10.6c2.3-3.1,5.9-6.4,11-9.8c3.5-2.3,6.9-4.1,10.2-5.2c3.4-1.1,6.4-1.7,9-1.6
	c2.1,0.1,3.7,0.5,4.9,1.3c1.2,0.8,1.8,2.1,1.7,3.7c-0.1,2.3-1.2,4.7-3.3,6.9c-2.2,2.3-5.4,4.5-9.8,6.7
	C705.2,245.5,699.8,247.5,693.5,249.5z M694.3,245.9c4-1.2,7.5-2.7,10.4-4.6c2.9-1.9,5.1-3.7,6.5-5.4c1.4-1.7,2.1-3,2.1-3.8
	c0-0.9-0.4-1.3-1.4-1.3c-0.8,0-2.1,0.4-3.9,1.2s-3.7,1.9-5.6,3.2c-1.9,1.3-3.6,2.9-5.1,4.7C695.8,241.7,694.8,243.7,694.3,245.9z"/>
<path d="M772.2,241.2c-8.3,6.8-12.5,11.6-12.7,14.5c-0.1,1.6,0.6,2.5,2.2,2.6c1.3,0.1,3-0.4,5.1-1.4c2.1-1,5.5-2.8,10.1-5.4
	l-0.3,3.9c-6.7,4.8-11.7,8.3-15.3,10.4c-3.5,2.1-6.4,3.1-8.5,2.9c-3.6-0.2-5.3-2.4-5.1-6.4c0.1-1.2,0.4-2.3,0.9-3.5
	c0.5-1.1,1.2-2.3,2.1-3.5c0.9-1.2,2.2-2.9,3.9-5.1c1.8-2.2,3.8-4.7,6.1-7.5c-2.6,0.9-5.9,2.9-10,5.8c-2.6,1.9-4.9,3.6-6.7,5.3
	c-1.9,1.7-3.8,3.6-6,5.7c-2.1,2.1-3.7,3.5-4.6,4.2c-1,0.7-1.9,1-2.8,1c-1.4-0.1-2.7-1.4-3.7-4c-1-2.6-1.4-5.5-1.2-8.8
	c0.1-2,0.5-3.6,1.2-4.7c0.6-1.1,1.8-2.7,3.6-4.7c3.3-3.7,6.2-6.5,8.5-8.2c2.3-1.7,4.5-2.5,6.6-2.4c1.4,0.1,2.6,0.4,3.4,0.8
	c0.8,0.5,1.2,1.1,1.2,2c0,0.4-0.2,0.8-0.5,1.1c-0.3,0.4-0.6,0.7-1,1.1c-0.4,0.3-1.1,0.9-2.2,1.8c-7.5,6.1-11.2,10.1-11.4,12
	c-0.1,1.1,0.3,1.6,1.2,1.7c0.5,0,1.6-0.6,3.2-2c1.6-1.3,3.7-3.1,6.3-5.3c2.6-2.2,5.6-4.4,9.1-6.7c3.5-2.3,7.4-4.5,11.8-6.6
	c2.4-1.2,4.4-1.8,6-1.7c0.7,0,1.4,0.9,1.9,2.6c0.6,1.7,0.8,3.4,0.7,5C775.2,238.4,774.2,239.6,772.2,241.2z"/>
<path d="M826.1,246.6c-8.6,6.4-13,11.1-13.3,14c-0.2,1.6,0.5,2.5,2.1,2.6c1.3,0.1,3-0.3,5.2-1.2c2.2-0.9,5.6-2.6,10.3-5l-0.4,3.8
	c-6.9,4.5-12.1,7.8-15.7,9.7c-3.6,1.9-6.5,2.8-8.6,2.6c-3.6-0.4-5.2-2.6-4.8-6.6c0.1-1.2,0.5-2.3,1-3.4c0.6-1.1,1.3-2.2,2.2-3.4
	c0.9-1.2,2.3-2.8,4.1-5c1.8-2.1,4-4.6,6.4-7.3c-2.6,0.8-6,2.6-10.2,5.4c-2.7,1.7-5,3.4-6.9,5c-1.9,1.6-4,3.4-6.2,5.4
	c-2.2,2-3.8,3.3-4.8,4c-1,0.7-2,0.9-2.9,0.9c-1.4-0.1-2.6-1.5-3.5-4.1c-0.9-2.6-1.2-5.6-0.8-8.9c0.2-2,0.7-3.6,1.4-4.7
	c0.7-1.1,2-2.6,3.8-4.5c3.5-3.6,6.4-6.2,8.8-7.8c2.4-1.6,4.6-2.3,6.7-2.1c1.4,0.1,2.5,0.5,3.4,1c0.8,0.5,1.2,1.2,1.1,2
	c0,0.4-0.2,0.7-0.5,1.1c-0.3,0.4-0.6,0.7-1,1c-0.4,0.3-1.1,0.9-2.3,1.7c-7.7,5.8-11.7,9.6-11.9,11.5c-0.1,1.1,0.2,1.7,1.1,1.7
	c0.5,0.1,1.6-0.5,3.3-1.8c1.7-1.3,3.9-2.9,6.5-5c2.7-2.1,5.8-4.2,9.4-6.4c3.6-2.2,7.6-4.2,12.1-6.1c2.5-1.1,4.5-1.6,6.1-1.4
	c0.7,0.1,1.3,1,1.8,2.7c0.5,1.7,0.7,3.4,0.5,5.1C829.2,244,828.1,245.1,826.1,246.6z"/>
<path d="M865.2,262.4l-0.6,4c-5,4-9.5,6.9-13.5,8.7c-4,1.8-7.4,2.5-10,2.2c-3.6-0.5-6.1-2.5-7.4-5.9c-1.3-3.4-1.7-7-1.1-10.8
	c0.2-1.4,0.6-2.8,1.1-4.1c0.5-1.3,1.1-2.3,1.7-3.1c0.6-0.8,1.7-2,3.3-3.6c7.5-7.3,13.8-10.5,19-9.8c2.7,0.4,3.9,1.4,3.6,3.2
	c-0.2,1.2-1.3,2.9-3.4,5.2c-2.1,2.3-3.9,3.8-5.5,4.7c-4.3,2.6-7.1,4.4-8.5,5.4c-1.3,1.1-2.1,2.4-2.4,3.9c-0.2,1.3,0.2,2.5,1.3,3.6
	c1.1,1.1,2.5,1.7,4.4,2c2.1,0.3,4.4,0,7.1-0.9C857.3,266.2,860.8,264.6,865.2,262.4z M864.4,237c-1.1-0.2-2.1-0.7-3-1.5
	c-0.9-0.8-1.3-1.8-1.1-2.9c0.2-1.6,1.4-3.3,3.6-5c2.1-1.7,4.2-2.5,6.2-2.2c1.3,0.2,2.4,0.7,3.2,1.5c0.8,0.8,1.1,1.9,0.9,3.2
	c-0.2,1.6-1.4,3.2-3.5,4.9C868.5,236.6,866.4,237.3,864.4,237z"/>
<path d="M867.8,264.3l0.2-1.3c13.2-8,22.2-13.6,27.2-16.8c1.8-4.3,4.5-6.2,8.2-5.5c0.9,0.2,1.9,0.6,2.8,1.2l0.2,1.1
	c-0.3,0.4-0.5,1-0.6,1.8c-0.1,0.7-0.1,2,0.2,4.1c0.3,2,0.5,3.7,0.6,5c0.1,1.3,0,2.8-0.3,4.4c-0.4,2.4-1.5,4.6-3.3,6.6
	c-1.7,2-4,3.8-6.9,5.4c-2.9,1.6-6.5,3.1-10.8,4.5c1.5,0.5,2.8,0.8,3.7,1c1.8,0.3,3.8,0.3,6-0.1c2.2-0.4,4.5-1,6.9-1.9
	c2.4-0.9,5.2-2.1,8.5-3.6l-0.7,3.7c-6.5,3.6-12.1,6.2-17,7.7c-4.9,1.6-8.9,2.1-12.1,1.5c-4.1-0.7-7.7-2.9-10.6-6.4
	c-1.7-2.1-2.7-4-2.9-5.8C867.2,269.3,867.3,267.1,867.8,264.3z M893.9,260.3l0.3-8.3c-3.2,2.1-9.9,6-20.2,11.7
	c2.5,0.9,4.2,1.9,5,2.9c0.8,1,1.9,2.8,3.2,5.4c3.2-0.5,5.7-1.5,7.6-3c1.9-1.5,3.2-3.8,3.7-6.9c0.1-0.4,0.1-0.7,0.2-1
	C893.9,260.9,893.9,260.6,893.9,260.3z"/>
<path d="M996.6,298.5l1.7,1.9c-0.9,0.8-1.6,1.6-2.4,2.2c-0.7,0.6-1.6,1.3-2.7,2.2c-1,0.9-1.8,1.5-2.4,1.9c-4.6,3.8-8.3,5.3-11.1,4.5
	c-1.2-0.3-2.1-1-2.7-2.1c-0.6-1-0.7-2.2-0.3-3.6c0.6-1.9,2.2-4.4,4.8-7.3c2.6-2.9,6.4-6.3,11.3-10.3c4.9-4,10.9-8.3,17.9-13.1
	c7-4.8,14.9-9.7,23.4-14.7c-3.6-1.5-8-3-13.2-4.5c-5.9-1.7-12.7-3-20.4-3.9c-7.6-1-14.4-1.5-20.2-1.5c-5.8-0.1-8.9,0.2-9.1,0.9
	c-0.1,0.3,0,0.5,0.2,0.6c0.2,0.1,0.5,0.3,1,0.5c0.5,0.2,1.1,0.4,1.8,0.7c4.8,2,7.2,3.3,6.9,4.1c-0.1,0.4-1.2,0.2-3.4-0.4
	c-2.2-0.6-4.8-1.4-7.9-2.3c-2.4-0.7-4.2-1.3-5.2-1.7c-1-0.5-1.7-1-1.9-1.5c-0.2-0.6-0.2-1.3,0.1-2.2c0.2-0.6,0.8-1.9,1.8-3.8
	c1.9-3.6,4.1-6.3,6.4-8.1c2.4-1.8,5.5-3,9.4-3.4c3.9-0.5,9.1-0.3,15.4,0.6c10.7,1.4,19.4,3.1,26.1,5c5,1.4,8.8,2.7,11.6,3.8
	c2.8,1.2,4.7,2.2,5.9,3.3c1.2,1,1.8,1.9,2,2.6c0.2,0.7,0.3,2,0.5,3.7l0.5,5.5c0,0.4,0.1,0.6,0.1,0.9c0,0.2,0,0.4,0,0.7
	c0,0.2,0,0.4-0.1,0.6c-0.4,1.4-1.2,2.5-2.2,3.4c-1.1,0.9-2.9,2.2-5.6,3.8c-2.6,1.7-4.6,3-5.9,4
	C1013.5,283.5,1002.7,292.4,996.6,298.5z"/>
<path d="M1031.7,305.4l-0.5,1.3c-0.8,2.1-0.8,3.9,0,5.5c0.8,1.6,2.1,2.8,4.1,3.5c2,0.7,4.3,1.1,6.8,1.1c2.5,0,5.1-0.3,7.8-0.8
	c2.7-0.5,6-1.3,10-2.4l-1.2,3.2c-6.5,3-12.3,5.1-17.4,6.1c-5.1,1-9.8,0.8-14-0.8c-3.7-1.4-6.2-3.6-7.5-6.8
	c-1.3-3.2-1.1-6.9,0.5-11.1c1.4-3.7,3.7-6.6,6.9-8.9c3.2-2.2,7.7-4.2,13.6-5.8c4-1.1,7.8-1.7,11.4-1.7c3.6,0,6.6,0.4,9,1.3
	c2,0.7,3.4,1.7,4.2,2.8c0.9,1.2,1,2.5,0.4,4c-0.8,2.2-2.6,4-5.4,5.5c-2.8,1.5-6.6,2.5-11.4,3.2
	C1044.1,305.3,1038.4,305.6,1031.7,305.4z M1033.7,302.2c4.2,0.2,8-0.2,11.4-1c3.4-0.8,6-1.9,7.9-3.1c1.9-1.2,3-2.2,3.3-2.9
	c0.3-0.8,0-1.4-0.9-1.7c-0.8-0.3-2.1-0.3-4.1-0.1c-2,0.2-4.1,0.6-6.3,1.3c-2.2,0.7-4.4,1.6-6.4,2.9
	C1036.5,298.7,1034.9,300.3,1033.7,302.2z"/>
<path d="M1074.9,308.9c8.4-1.8,16-2.6,22.8-2.2c6.8,0.4,11.8,1.3,15,2.8c0.8,0.4,1.5,1,1.9,2c0.4,0.9,0.7,1.9,0.7,2.8
	c0.1,1,0,1.6-0.2,2c-0.3,0.6-0.8,0.9-1.5,1c-0.7,0-1.9-0.1-3.5-0.3c0,0.7,0.1,1.5,0.1,2.6c0,1,0.1,1.9,0,2.5c0,0.6-0.1,1.2-0.3,1.6
	c-0.4,0.8-2.1,1.9-5.1,3.2c-3,1.3-5.2,2.3-6.4,3c-1.3,0.7-2.3,1.8-3,3.3c-1.2,2.5-0.4,4.4,2.3,5.6c2.8,1.3,8.3,1.1,16.4-0.5
	l-1.5,3.1c-14.7,4.8-24.3,6.2-28.7,4.1c-1.6-0.7-2.5-1.7-2.7-2.8c-0.3-1.2,0-2.6,0.8-4.3c1.3-2.7,4.3-6,9-10
	c-8.5,2.8-14.7,4.6-18.7,5.6c-4,1-6.9,1.1-8.7,0.2c-0.9-0.4-1.7-1.6-2.4-3.5c-0.7-1.9-1.1-4.1-1.2-6.6c-0.1-2.5,0.4-4.9,1.5-7.1
	c0.8-1.6,1.6-2.8,2.4-3.7c0.9-0.9,2.1-1.7,3.7-2.3C1069.3,310.3,1071.7,309.6,1074.9,308.9z M1106.5,316.7
	c-12.4-0.8-21.5-0.8-27.3-0.1c-5.8,0.7-9.4,2.6-10.8,5.6c-0.5,1.1-0.7,2.1-0.6,3c0.1,0.9,0.6,1.5,1.3,1.9c0.4,0.2,1.3,0.3,2.7,0.4
	c5.2-0.1,10.4-1.1,15.5-2.8C1092.4,322.8,1098.8,320.2,1106.5,316.7z"/>
<path d="M1138.4,362c7.7-0.4,14.3-0.8,19.9-1.2c5.6-0.4,10-0.7,13.1-0.9c3.2-0.2,6-0.4,8.3-0.4c2.3-0.1,3.7,0,4.2,0.3
	c0.9,0.5,1.2,1.8,0.9,3.8c-0.3,2-0.7,3.5-1.3,4.4c-0.4,0.6-2.5,1.2-6.4,1.8c-3.8,0.6-6.8,1.2-8.8,1.7c-2.1,0.5-3.6,1.5-4.5,2.9
	c-0.6,0.8-0.7,1.7-0.4,2.7c0.3,1,0.9,1.7,1.9,2.3c1.1,0.7,2.7,1.1,4.8,1.2c2.1,0.1,5.6,0,10.5-0.3l-2.3,3.3c-5,0.4-9.4,0.7-13.3,0.8
	c-3.9,0.1-7.1,0-9.7-0.4c-2.6-0.4-4.5-1-5.8-1.8c-1.1-0.8-1.9-1.8-2.1-3c-0.3-1.2,0-2.4,0.7-3.5c0.7-1.1,1.7-2,2.9-2.8
	c1.2-0.8,2.7-1.6,4.7-2.5c1.9-0.9,4.4-1.9,7.3-2.9c2.9-1.1,5.6-2.1,8.1-3c-5.5,0.1-10.6,0.3-15.1,0.8c-4.6,0.5-8.4,1-11.4,1.5
	c-3.1,0.6-5.5,1-7.3,1.3c-3.4,0.6-6,0.2-7.7-0.9c-1.9-1.3-2.1-3-0.5-5.3c0.6-0.9,2.5-2.1,5.6-3.6c3.1-1.4,7.2-3.1,12.4-5.1
	c0.4-0.1,0.8-0.4,1.1-0.9c0.4-0.6,0.3-1.2-0.5-1.7c-0.8-0.5-2.4-0.7-4.8-0.4c-2.4,0.3-7.2,1-14.4,2.2c-2,0.3-4.4,0.9-7.2,1.8
	c-2.8,0.8-4.7,1.3-5.8,1.5c-1.1,0.2-2,0-2.6-0.4c-1.3-0.9-1.9-2.7-1.7-5.4c0.2-2.7,1.2-5.4,3-8.1c1.3-1.9,2.8-3.3,4.5-4.2
	c1.7-0.9,4.1-1.9,7.1-2.9c4.5-1.4,8-2.2,10.5-2.4c2.4-0.2,4.5,0.2,6.3,1.4c1.1,0.7,1.9,1.5,2.3,2.3c0.5,0.8,0.5,1.6,0.1,2.2
	c-0.4,0.7-1.9,1.3-4.2,1.9c-2.4,0.6-5.1,1-8.3,1.2c-1.7,0.2-3.5,0.6-5.4,1.2c-1.9,0.7-3,1.3-3.4,1.9c-0.6,0.8-0.5,1.5,0.3,2
	c0.6,0.4,3,0.4,7-0.1c4-0.5,8.4-1,13.2-1.5c4.8-0.5,9.1-0.8,12.8-0.8c3.8,0,6.5,0.6,8.4,1.8c1.1,0.7,1.8,1.7,2,2.9
	c0.2,1.2,0,2.3-0.7,3.3c-0.5,0.7-1.9,1.5-4.2,2.6c-2.3,1-5.4,2.2-9.4,3.4C1149.2,359.1,1144.3,360.5,1138.4,362z"/>
</svg>
