<?xml version="1.0" encoding="utf-8"?>
<!-- Generator: Adobe Illustrator 24.2.1, SVG Export Plug-In . SVG Version: 6.00 Build 0)  -->
<svg version="1.1" id="レイヤー_1" xmlns="http://www.w3.org/2000/svg" xmlns:xlink="http://www.w3.org/1999/xlink" x="0px"
	 y="0px" viewBox="0 0 1280 1024" style="enable-background:new 0 0 1280 1024;" xml:space="preserve">
<style type="text/css">
	.st0{stroke:#000000;stroke-miterlimit:10;}
</style>
<g id="シルエット">
	<g>
		<polygon points="869.7,333.21 869.7,333.21 869.7,333.21 		"/>
		<path d="M1001.46,384.03c0.52,0.25,1.2,0.55,1.8,0.83C1002.83,384.29,1002.16,384.07,1001.46,384.03z"/>
		<path d="M1042.39,475.3c-4.28-1.58-10.03-0.33-14.74-0.83c-0.99-0.1-2.01-0.24-2.83-0.78c-1.9-1.26-1.4-4.62,0.79-5.33
			c-3.15,1.01-5.71-0.52-9.79,1.81c-4.05,2.31-7.35,6.82-11.45,9.41c-9.02,5.7-20.79,10.21-31.63,6.96
			c-0.15-0.04-0.29-0.08-0.44-0.09c0.3-0.4,0.6-0.81,0.9-1.21c0.03-0.27-0.02-0.5-0.14-0.71c1.92-2.26,3.05-4.95,3.9-7.81
			c0.05-0.12,0.11-0.23,0.16-0.35c0.04-0.03,0.07-0.09,0.11-0.18c0.65-0.83,0.59-1.86,0.63-2.87c0.23-5.09,0.46-10.2,0.68-15.3
			c-0.07-0.03-0.13-0.06-0.2-0.1c0.01-0.01,0.02-0.02,0.02-0.03c0,0,0.16,0.12,0.17,0.12c-1.1-0.8,2.86-10.45,3.6-11.45
			c3.02-4.1,6.44-6.93,13.34-5.24c1.05,0.26,1.74-0.92,2.2-1.95c0.66-2.08,2.56-2.19,4.07-2.93c1.63-0.81,3.68-0.43,5.02-2.05
			c2.64-3.2,5.79-9.03,9.05-10.29c5.7-2.2,12.63,2.04,19.13-2.31c0.23,0,0.46,0,0.69,0.01c0.44-0.74,0.88-1.48,1.32-2.22
			c1.4-2.45,0.66-4.92,0.05-7.38c-0.23,0-0.47,0.01-0.71,0.01c-2.06-5.21-5.96-8.45-10.23-11.31c-0.05-0.15-0.11-0.31-0.14-0.47
			c-0.16-0.31-0.36-0.58-0.62-0.79c-0.44-0.24-0.89-0.49-1.34-0.74c-0.46-1.99-1.62-3.24-3.5-3.68c-5.74-4.05-9.31-10.42-16.97-9.83
			l-5.06-1.27c-0.24,0.24-1.95,5.11-2.19,5.34c0.42,3.08,5.14,3.18,6.31,5.79c0.97,2.17,1.87,4.38,2.8,6.55
			c-2.98-0.15-12.92-0.46-14.33-3.75c-0.89-2.08,4.36-7.58,3.99-7.91c0,0-0.11-0.1-0.11-0.1c0-0.01,0-0.02,0-0.03
			c0.04,0.04,0.08,0.08,0.11,0.13c1.99-1.43,2.02-4.13,3.37-5.97c1.92-2.61,9.33-9.76,8.29-13.83c-1.46-5.71,0.03-12.51-0.01-18.84
			c0.06-0.2,0.11-0.39,0.17-0.59c1.28-2.14,0.76-4.43,0.49-6.7c-0.19-0.61-0.52-1.11-1.01-1.48c-0.11-0.06-0.22-0.12-0.33-0.15
			c-0.12-4.42-3.93-5.81-6.25-8.43c-1.12-0.53-2.25-1.06-3.37-1.59c-0.79-1.66-2.41-1.64-3.77-2.08c-1.7-0.55-3.63,0.49-5.25-0.79
			c-6.09,0.44-12.17,0.97-17.83,3.74c-0.57,0.34-1.13,0.69-0.78,1.29c-0.01,0-0.03,0.01-0.04,0.01c-1.59,1.98-3.18,3.96-4.77,5.94
			c-0.22,0.26-0.43,0.51-0.65,0.76c-0.2,0.83-0.41,1.65-0.62,2.48c-0.07,0.05-0.13,0.11-0.2,0.15c-0.07,0.08-0.13,0.17-0.19,0.26
			c-0.66,0.01-1.15,0.45-1.32,1.06c-1.46,5.11-3.23,10.2-1.08,15.6c0.08,0.13,0.17,0.27,0.25,0.4c-0.13,0-0.26,0-0.38,0.01
			c-0.88-0.58-1.75-1.4-2.67-0.06c-1.34,1.16-0.68,6.02-0.63,7.68c0,0-2.39-2.03-2.4-2.03c-10.8-9.16-24.91-14.86-36.6-22.98
			c-12.14-8.43-17.57-18.05-25.34-30.17c-16.63-25.91-62.01-43.52-75.82-5.47c-3.01,8.3-3.88,22.83,2.48,30.17
			c5.02,5.79,17.18,9.81,24.29,14.06c8.93,5.16,20.15,7.58,30.41,8.56c6.76,0.64,13.36-1.84,20.04-2.33
			c7.76-0.57,15.82,1.33,23.18,3.49c14.98,4.4,24.95,10.39,38.34,18.19c0.4,1.18,1.31,1.49,2.35,1.57c0.19-0.04,0.37-0.07,0.54-0.11
			c1.23,0.47,3.16,0.51,1.23,3.01c-0.4,0.41-0.41,0.88-0.2,1.4c0.04,0.01,0.08,0.03,0.13,0.04c-0.49,0.08-0.98,0.15-1.24,0.71
			c-1.32,0.09-2.63,0.19-3.45,1.54c-5.18,8.55-13.82,16.35-20.32,23.98c-6.63,7.78-17.77,12.73-22.55,21.82
			c-4.57,8.71-0.23,18.75-5.06,27.28c-3.61,6.38-11.7,10.67-12.28,17.91c-0.16,1.95,0.14,4.27-1.42,5.53
			c-0.68,0.55-1.59,0.76-2.3,1.26c-2.01,1.41-1.72,4.29-1.61,6.68c0.35,7.93-6.84,4.46-11.21,7.54c-8.46,1.65-13.55,9.2-18.63,15.15
			c-7.07,8.27-13.39,12.48-23.12,17.88c7.15,2.03,13.71-5.24,21.16-5.52c9.34-0.35,14.6-10.16,24.86-10.82
			c-3.51,2.28-9.37,2.06-10.6,5.95c-0.32,1-0.22,2.09-0.6,3.06c-1.87,4.72-16.72,5.35-21.09,6.53c-8.61,2.31-18.42,5.38-23.39,13.11
			c-4.85,7.51-15.95,10.04-22.53,15.58c0.22,0.19,0.98,1.05,1.05,1.36c-0.28,0.88-0.94,1.26-1.38,1.95
			c-2.82,4.47-13.93-14.07-15.24-17.08c-2.81-0.51-4.4-2.9-6.16-5.03c-0.9-5.31-8-5.98-9.93-11.03c4.89-3.95,5.08-12.11,0.39-16.27
			c-4.48-3.96-11.31-3.85-17-5.93c-11.47-4.19-21.32-12.27-33.64-14.58c-15.3-2.87-26.7,13.71-15.29,26.27
			c4.99,0.17,12.84,2.33,17.22,4.48c5.87,2.88,8.28,10.56,15.71,8.81c0.61-1.29,1.72-2.37,3.06-2.97
			c1.45,1.87,8.9,14.51,11.27,11.86c0,0,0.79,0.74,0.8,0.75c5.78,5.44,6.38,15.08,7.99,22.27c2.16,9.66,5.2,18.32,10.05,27.09
			c1.8,3.26,4.14,9,7.54,11.01c2.19,1.3,6.14-0.16,8.18,1.55c8.32,6.98,20.25-1.7,27.71-5.76c4.29-2.34,9.77-6.5,14.9-6.81
			c6.43-0.39,11.25,3.9,17.92,2.71c8.24-1.47,14.49-8.91,22.62-11.08c6.09-1.63,7.49-1.41,12.31,1.92
			c1.78,1.22,10.62,10.09,10.24,12.27c-0.01,0.06-0.02,0.11-0.02,0.17c0.04,0.57,0.27,1.04,0.62,1.45c2.8,4.7,6.34,9.05,6.35,15.1
			c1.32,1.54,1.2,4.04,2.57,5.54c0.11,0.24,0.26,0.56,0.38,0.8c0.09,0.88,0.34,1.72,0.53,2.56c0.44,1.51,0.4,3.26,1.9,4.2
			c0.07-0.03,0.15-0.06,0.22-0.08c0.65,1.11,1.56,1.46,2.72,1.03c1.04-0.86,2.17-0.3,3.28-0.33c3.66-0.08,7.25-0.56,10.42-2.74
			c0.23,0.36,0.49,0.63,0.75,0.85c-0.64,0.08-1.28,0.27-1.9,0.62c-0.04,0.76,0.47,0.99,1.02,1.19c0.57,0.38,1.78-0.09,1.7,0.08
			c-2.67,5.35,7.11,14.35,6.43,21.47c-0.56,5.88-3.1,11.39-5.37,16.88c-3.67,8.88-11.56,30.18-4.4,39.11
			c0.63,0.78-1.85,18.74-2.45,20.29c-1.78,4.61-6.39,6.24-8.51,11.25c-1.58,3.73-1.78,7.85-1.97,11.88
			c-0.39,8.55-5.64,17.99,6.63,19.18c11.2,1.09,21.99,4.78,33.3,5.45c4.75,0.28,12.65,1.19,16.72-1.96
			c12.62-9.74-9.82-14.82-14.91-18.88c-3.69-2.94-5.32-8.73-10.06-10.27c1.57-1.54,2.3-3.82,1.91-5.94
			c-1.71,0.86-4.02,0.37-5.2-1.09c-5.42-6.73,7.82-22.31,10.47-28.09c3.92-8.55,5.09-18.14,7.53-27.12
			c3.6-13.26,10.73-32.34,8.29-45.77c-0.33-1.8-6.29-23.1-6.05-22.97c0.07,0.04,0.14,0.08,0.22,0.12c1.36,0.44,2.74,0.6,3.75-0.69
			c1.52-1.98-5.94-15.59-6.86-18.65c-2.16-7.16-6.42-18.1-3.09-25.39c6.35-13.91,0.96-16.86-8.89-26.49
			c-14.87-14.54,7.53-8.62,8.67-15.55c1.13-6.84,5.05-13.52,9.35-18.95c10.51,9.35,34.93-9.41,46.52-11.32
			c6.76-1.11,14.34-1.48,18.91-7.03c6.97-8.48,3.07-10.7,17.07-11.35c1.19-0.06,1.71-0.76,1.47-1.82
			C1043.5,475.77,1042.95,475.51,1042.39,475.3z"/>
		<path d="M1001.46,384.03c-0.49-0.23-0.84-0.42-0.84-0.49c-0.67,0.51-1.31,0.48-1.99,0.99
			C998.63,384.53,1000.1,383.94,1001.46,384.03z"/>
		<path d="M943.56,751c-0.01,0.01-0.03,0.02-0.05,0.03c0-0.03,0.01-0.04,0.01-0.07C943.54,750.98,943.55,750.99,943.56,751z"/>
		<path d="M928.91,746.81c-0.01-0.06-0.01-0.11-0.02-0.17c0.04,0.01,0.07,0.02,0.1,0.03l0,0
			C928.96,746.72,928.93,746.76,928.91,746.81z"/>
		<path d="M947.9,759.26c0-0.01-0.01-0.01-0.01-0.02c0,0,0.01-0.01,0.01-0.01c0,0.01,0,0.01,0,0.01S947.91,759.25,947.9,759.26z"/>
		<path d="M924.09,742.19c0.02,0.02,0.04,0.04,0.05,0.06l0,0c-0.05,0-0.1,0.01-0.14,0.01C924.04,742.24,924.07,742.22,924.09,742.19
			z"/>
		<path d="M943.45,768.76c0.01,0.01,0.02,0.03,0.02,0.04c-0.02,0.01-0.04,0.01-0.06,0.03C943.43,768.8,943.44,768.77,943.45,768.76z
			"/>
		<path d="M923.09,688.04c-0.45-0.4-0.09-0.38,0.11-0.53c-0.02,0.19-0.04,0.38-0.05,0.58C923.13,688.08,923.12,688.06,923.09,688.04
			z"/>
		<polygon points="946.91,364.64 946.91,364.64 946.91,364.64 		"/>
		<path d="M1022.92,398.21c-0.01,0-0.01,0-0.01,0c0-0.01,0-0.01,0-0.01C1022.91,398.21,1022.91,398.21,1022.92,398.21z"/>
		<path d="M1026.16,480.43c0,0.03-0.01,0.05-0.01,0.08c-0.05-0.01-0.11-0.03-0.17-0.04C1026.04,480.45,1026.1,480.44,1026.16,480.43
			z"/>
		<path d="M1021.3,485.42c0.03,0.06,0.05,0.13,0.07,0.2c-0.04-0.01-0.07-0.03-0.1-0.04C1021.28,485.53,1021.29,485.47,1021.3,485.42
			z"/>
		<path d="M952.17,670.89c-0.04-0.22-0.01-0.42,0.13-0.56C952.25,670.52,952.21,670.7,952.17,670.89z"/>
		<path d="M806.99,572.65c0.02,0.02,0.04,0.04,0.05,0.06c-0.01,0.01-0.01,0.01-0.02,0.01C807.02,572.7,807.01,572.68,806.99,572.65z
			"/>
		<path d="M991.77,344.78c-0.02-0.01-0.04-0.02-0.07-0.03c0.01-0.01,0.01-0.01,0.01-0.01C991.73,344.75,991.75,344.76,991.77,344.78
			z"/>
		<path d="M990.22,348.3c0,0,0.01,0.02,0.02,0.04c-0.01,0.01-0.01,0.01-0.01,0.01c-0.01-0.01-0.02-0.03-0.04-0.04
			C990.2,348.3,990.21,348.3,990.22,348.3z"/>
		<path d="M849.81,540.21c0.03,0,0.07,0,0.1,0C849.99,540.35,849.89,540.32,849.81,540.21z"/>
		<path d="M933.08,566.82c-0.01-0.02-0.01-0.03-0.02-0.04c0.02-0.01,0.04-0.01,0.07-0.02C933.11,566.77,933.1,566.79,933.08,566.82z
			"/>
		<path d="M780.08,568.9c0,0.02,0.01,0.04,0.01,0.06c-0.03-0.01-0.06-0.02-0.09-0.03C780.02,568.92,780.05,568.91,780.08,568.9z"/>
		<path d="M938.61,612.55C938.55,612.22,938.75,612.4,938.61,612.55L938.61,612.55z"/>
		<path d="M936.91,612.25c-0.01-0.01-0.02-0.03-0.02-0.04c0.01,0,0.02,0,0.02,0C936.91,612.23,936.91,612.25,936.91,612.25z"/>
		<path d="M915.99,603.97c0.04,0.08,0.08,0.17,0.13,0.24c-0.01,0-0.02,0-0.04,0C916.02,604.21,915.96,604.08,915.99,603.97z"/>
		<path d="M915.21,578.2c0,0.01,0.01,0.01,0.01,0.01c-0.01,0-0.01,0-0.01,0C915.2,578.21,915.2,578.2,915.21,578.2z"/>
		<path d="M884.87,550.21c-0.01,0-0.02,0-0.03,0c0,0,0.01-0.01,0.01-0.01C884.86,550.21,884.86,550.21,884.87,550.21z"/>
		<path d="M972.41,432.21c0.05-0.03,0.11-0.06,0.16-0.08c-0.01,0.03-0.02,0.06-0.03,0.08C972.5,432.21,972.45,432.21,972.41,432.21z
			"/>
		<path d="M961.78,432.98c0.01,0,0.01,0.01,0.01,0.01c-0.04,0.01-0.08,0.01-0.13,0.02C961.7,433,961.73,432.99,961.78,432.98z"/>
		<path d="M866.26,552c0.18-0.46,0.44-0.82,0.75-1.13c-0.18,0.38-0.34,0.78-0.49,1.19C866.43,552.03,866.34,552.02,866.26,552z"/>
		<path d="M886.36,550.29c-0.04-0.03-0.07-0.05-0.11-0.08l0,0l0,0c0.04,0,0.08,0,0.13,0C886.37,550.24,886.37,550.27,886.36,550.29z
			"/>
		<path d="M915.88,518.87c0.02-0.01,0.04-0.02,0.05-0.03c0.04,0.03,0.08,0.06,0.11,0.1c-0.06,0.01-0.12,0.03-0.18,0.06
			C915.87,518.96,915.87,518.91,915.88,518.87z"/>
		<path d="M948.98,469.4c0.01-0.04,0.02-0.08,0.02-0.13c0.02,0.02,0.04,0.04,0.05,0.06C949.03,469.35,949,469.38,948.98,469.4z"/>
		<path d="M913.14,563.8c-0.02,0.03-0.04,0.04-0.06,0.06c-0.02-0.02-0.03-0.04-0.05-0.06C913.06,563.8,913.1,563.8,913.14,563.8
			L913.14,563.8L913.14,563.8z"/>
		<path d="M915.2,565.21L915.2,565.21L915.2,565.21c-0.01,0.01-0.02,0.01-0.02,0.02c0-0.01-0.01-0.01-0.01-0.02
			C915.18,565.21,915.19,565.21,915.2,565.21z"/>
		<path d="M908.91,567.21c-0.04,0.04-0.07,0.07-0.1,0.1c-0.01-0.04-0.01-0.07-0.02-0.1C908.82,567.21,908.87,567.21,908.91,567.21
			C908.91,567.21,908.91,567.21,908.91,567.21C908.91,567.21,908.91,567.21,908.91,567.21L908.91,567.21z"/>
		<path d="M912.43,560.85c-0.01-0.01-0.01-0.01-0.01-0.01C912.43,560.84,912.43,560.84,912.43,560.85
			C912.44,560.85,912.43,560.85,912.43,560.85z"/>
		<path d="M961.39,434.74c-0.02,0.04-0.04,0.08-0.05,0.12c-0.04-0.03-0.08-0.06-0.11-0.1C961.27,434.75,961.33,434.74,961.39,434.74
			z"/>
		<path d="M960.3,429.09c0.01-0.02,0.02-0.04,0.03-0.06c0.01,0.01,0.02,0.03,0.02,0.04C960.33,429.08,960.32,429.08,960.3,429.09z"
			/>
		<path d="M937.92,472.92c0.02,0.04,0.05,0.08,0.07,0.13c-0.02,0.01-0.04,0.03-0.05,0.03C937.93,473.02,937.93,472.97,937.92,472.92
			z"/>
		<path d="M905.6,520.55c0.01,0.13,0.02,0.25,0.02,0.38c-0.02,0.03-0.05,0.06-0.08,0.1C905.55,520.85,905.57,520.69,905.6,520.55z"
			/>
		<path d="M901.45,584.21c-0.01,0.01-0.01,0.02-0.01,0.03c-0.01-0.01-0.02-0.02-0.03-0.03
			C901.42,584.21,901.43,584.21,901.45,584.21z"/>
		<path d="M924.25,591.26c0.04,0.01,0.07,0.01,0.11,0.01c-0.01,0.03-0.02,0.06-0.02,0.09C924.3,591.32,924.27,591.29,924.25,591.26z
			"/>
		<path d="M908.9,547.21c0-0.01,0.01-0.01,0.01-0.01C908.91,547.21,908.91,547.21,908.9,547.21L908.9,547.21z"/>
		<path d="M935.19,454.65L935.19,454.65c-0.12,0.17-0.26,0.35-0.38,0.51c-0.03-0.12-0.05-0.27-0.04-0.47
			C934.91,454.68,935.05,454.66,935.19,454.65z"/>
		<path d="M935.21,579.21c0,0.01-0.01,0.01-0.01,0.02c-0.01-0.01-0.01-0.01-0.01-0.02C935.2,579.21,935.2,579.21,935.21,579.21
			L935.21,579.21L935.21,579.21z"/>
		<path d="M982.14,389.87c-0.02-0.03-0.05-0.06-0.07-0.09c0.04,0.01,0.08,0.01,0.12,0.01C982.17,389.82,982.15,389.84,982.14,389.87
			z"/>
		<path d="M971.96,393.95c0.04,0.09,0.08,0.17,0.11,0.26c-0.14,0-0.27-0.01-0.38-0.05l0,0l0,0
			C971.78,394.07,971.87,394.01,971.96,393.95z"/>
		<path d="M886.29,536.3c0.02,0.04,0.04,0.1,0.06,0.14c-0.03,0.03-0.07,0.04-0.1,0.06C886.26,536.44,886.28,536.37,886.29,536.3z"/>
		<path d="M871.08,571.17L871.08,571.17c0.02-0.02,0.04-0.04,0.06-0.06c0.01,0.02,0.03,0.04,0.04,0.05
			C871.15,571.17,871.11,571.17,871.08,571.17L871.08,571.17c-0.04,0.09-0.11,0.16-0.2,0.22
			C870.94,571.31,871.01,571.24,871.08,571.17L871.08,571.17z"/>
		<path d="M911.75,597.73c0.26-0.06,0.49-0.13,0.68-0.19c-0.11,0.13-0.26,0.24-0.44,0.36C911.91,597.83,911.83,597.78,911.75,597.73
			L911.75,597.73L911.75,597.73z"/>
		<path d="M943.91,627.49c0-0.01,0-0.01,0-0.02c0.1-0.03,0.2-0.06,0.3-0.12C944.11,627.42,944.01,627.45,943.91,627.49z"/>
		<path d="M963.46,447.29L963.46,447.29L963.46,447.29c0.04-0.02,0.07-0.04,0.11-0.06c0.01,0.02,0.01,0.04,0.01,0.06
			C963.54,447.29,963.5,447.29,963.46,447.29z"/>
		<path d="M991.56,378.25c0.11-0.07,0.25-0.12,0.38-0.15c-0.16,0.08-0.32,0.17-0.49,0.23C991.49,378.3,991.53,378.26,991.56,378.25z
			"/>
		<path d="M967.59,391.25c-0.01-0.01-0.01-0.03-0.01-0.04c0.01,0,0.02,0,0.03,0C967.6,391.22,967.59,391.24,967.59,391.25z"/>
		<polygon points="922.09,454.21 922.09,454.21 922.09,454.21 		"/>
		<path d="M904.91,501.12c0.02,0.02,0.04,0.04,0.07,0.06c-0.02,0.01-0.05,0.01-0.07,0.02C904.91,501.16,904.91,501.14,904.91,501.12
			z"/>
		<path d="M857.89,575.28c-0.01-0.02-0.01-0.04-0.02-0.06c0.04,0,0.08,0,0.12,0l0,0l0,0l0,0
			C857.95,575.23,857.92,575.25,857.89,575.28z"/>
		<polygon points="865.58,572.21 865.58,572.21 865.57,572.21 		"/>
		<path d="M869.69,572.21c0.01-0.01,0.02-0.03,0.04-0.04c0.01,0.01,0.01,0.03,0.02,0.04C869.73,572.21,869.71,572.21,869.69,572.21
			L869.69,572.21L869.69,572.21z"/>
		<path d="M951.91,625.79c-0.02-0.03-0.05-0.06-0.07-0.09l0,0l0,0c0.02-0.01,0.05-0.01,0.07-0.01
			C951.91,625.72,951.91,625.75,951.91,625.79z"/>
		<path d="M927.6,591.09c0.04,0.01,0.08,0.01,0.13,0.01c-0.01,0.01-0.02,0.03-0.03,0.04C927.67,591.13,927.64,591.11,927.6,591.09z"
			/>
		<path d="M940.71,577.81c0-0.12,0.07-0.26,0.15-0.42c0.03,0.11,0.06,0.22,0.09,0.34C940.87,577.76,940.79,577.79,940.71,577.81
			L940.71,577.81L940.71,577.81z"/>
		<polygon points="971.91,449.49 971.91,449.49 971.91,449.49 		"/>
		<path d="M1018.91,417.5c0.07,0.03,0.13,0.04,0.19,0.06c-0.06,0.06-0.13,0.13-0.19,0.2
			C1018.91,417.68,1018.91,417.59,1018.91,417.5z"/>
		<path d="M871.85,534.16c0.01,0.04,0.02,0.09,0.02,0.13c-0.04,0-0.07,0.01-0.1,0.01l0,0C871.79,534.25,871.82,534.21,871.85,534.16
			z"/>
		<path d="M928.42,618.21c-0.01,0.04-0.01,0.09-0.01,0.13c-0.04-0.04-0.08-0.08-0.12-0.13
			C928.33,618.21,928.38,618.21,928.42,618.21z"/>
		<path d="M930.34,604.02c0.07-0.37,0.14,0.02,0.03,0.18c-0.02-0.02-0.05-0.04-0.07-0.07C930.32,604.1,930.33,604.07,930.34,604.02z
			"/>
		<path d="M928.3,602.21c0-0.08-0.02-0.04-0.03-1l0,0h-0.01c0.01,0.95,0.02,0.93-0.36,0.92v-0.03c0.4,0.01,0.42,0.02,0.42,0.11
			H928.3z"/>
		<path d="M921.99,596.6c-0.02-0.04-0.05-0.08-0.08-0.13c0.04,0.01,0.08,0.01,0.12,0.02C922.01,596.52,922,596.56,921.99,596.6z"/>
		<path d="M973.51,450.43c0.14-0.03,0.29-0.01,0.44,0.09C973.8,450.5,973.66,450.47,973.51,450.43z"/>
		<path d="M1015.76,414.71c0.05,0,0.1-0.01,0.14-0.01c0,0.04,0,0.08,0,0.12C1015.85,414.79,1015.81,414.75,1015.76,414.71z"/>
		<path d="M1008.54,403.8c0,0.01,0.01,0.02,0.01,0.03c-0.01-0.01-0.02-0.02-0.03-0.03l0,0
			C1008.52,403.8,1008.53,403.8,1008.54,403.8z"/>
		<path d="M894.63,492.27c0.02,0.1,0.04,0.19,0.06,0.28c-0.06-0.08-0.12-0.17-0.17-0.28C894.55,492.26,894.59,492.26,894.63,492.27z
			"/>
		<path d="M872.46,573.21L872.46,573.21c0.07,0,0.14,0,0.21,0c-0.37,0.19-0.74,0.33-1.11,0.42
			C871.86,573.52,872.16,573.39,872.46,573.21z"/>
		<path d="M923.6,618.21c0,0.02-0.01,0.03-0.01,0.05c-0.04-0.02-0.08-0.03-0.12-0.05C923.51,618.21,923.56,618.21,923.6,618.21z"/>
		<path d="M935.17,627.81c0.01,0.03,0.01,0.06,0.01,0.09c-0.05-0.01-0.1-0.01-0.15-0.01l0,0l0,0
			C935.08,627.86,935.13,627.83,935.17,627.81z"/>
		<path d="M937.38,633.21c-0.01,0.04-0.02,0.08-0.03,0.11c-0.03-0.04-0.06-0.08-0.09-0.11C937.3,633.21,937.34,633.21,937.38,633.21
			z"/>
		<path d="M929.83,602.29c-0.05-0.04-0.11-0.09-0.16-0.14c0.04,0.02,0.08,0.03,0.13,0.04C929.81,602.23,929.82,602.26,929.83,602.29
			z"/>
		<path d="M1000.68,338.91c0-0.01-0.01-0.03-0.01-0.04c0.01,0.01,0.03,0.01,0.04,0.03C1000.7,338.9,1000.69,338.91,1000.68,338.91z"
			/>
		<path d="M964.14,388.24L964.14,388.24L964.14,388.24z"/>
		<path d="M876.65,526.79c0.01,0.04,0.02,0.08,0.04,0.12c-0.03,0.01-0.06,0.01-0.09,0.01C876.61,526.87,876.63,526.83,876.65,526.79
			z"/>
		<path d="M805.4,572.51c-0.08-0.07-0.16-0.15-0.22-0.24c0.08,0.07,0.16,0.15,0.23,0.23C805.41,572.5,805.41,572.51,805.4,572.51z"
			/>
		<path d="M842.13,587.4L842.13,587.4c0.38-0.06,0.76-0.12,1.13-0.2c-0.35,0.25-0.68,0.53-0.98,0.85
			C842.21,587.87,842.16,587.66,842.13,587.4z"/>
		<path d="M982.76,442.13c0.02-0.01,0.04-0.02,0.06-0.03c-0.01,0.02-0.03,0.03-0.04,0.05C982.77,442.14,982.77,442.14,982.76,442.13
			z"/>
		<path d="M990.37,438.19c0.01,0.01,0.01,0.02,0.01,0.03c-0.01,0-0.02,0-0.04,0C990.35,438.2,990.36,438.19,990.37,438.19z"/>
		<path d="M988.91,397.86c0-0.01,0-0.02,0-0.03l0,0l0,0c0.01,0,0.02,0.01,0.04,0.01C988.93,397.85,988.92,397.85,988.91,397.86z"/>
		<path d="M962.69,361.6c0.01-0.01,0.02-0.02,0.02-0.03c0.01,0.05,0.02,0.1,0.04,0.16C962.73,361.69,962.71,361.64,962.69,361.6z"/>
		<path d="M868.97,296.91L868.97,296.91L868.97,296.91z"/>
		<path d="M861.91,295.36c0,0.02,0,0.04,0,0.06l-0.01-0.01l0,0C861.9,295.41,861.91,295.36,861.91,295.36z"/>
		<path d="M863.5,304.22L863.5,304.22L863.5,304.22c0.01-0.01,0.01-0.01,0.02-0.01c-0.01,0.01-0.01,0.01-0.01,0.02
			C863.5,304.23,863.5,304.23,863.5,304.22L863.5,304.22L863.5,304.22z"/>
		<path d="M824.91,321.06c0,0.02,0,0.04,0,0.06c-0.05-0.07-0.1-0.13-0.14-0.21C824.84,320.96,824.89,321,824.91,321.06z"/>
		<path d="M869.81,333.22c0.01-0.03,0.02-0.05,0.04-0.08c0.02,0.03,0.05,0.04,0.07,0.07h0.01c-0.01,0.01-0.01,0.01-0.01,0.01
			c0-0.01,0-0.01,0-0.01C869.88,333.21,869.84,333.22,869.81,333.22z"/>
		<path d="M865.55,316.01c0,0.01,0.01,0.02,0.01,0.03c-0.01-0.01-0.01-0.01-0.02-0.02l0,0l0,0
			C865.54,316.02,865.55,316.01,865.55,316.01z"/>
		<path d="M832.48,310.86c0,0-0.01-0.01-0.01-0.01l0,0C832.48,310.85,832.48,310.86,832.48,310.86L832.48,310.86z"/>
		<path d="M832.91,311.21c0.01,0,0.01,0,0.02,0c-0.01,0.01-0.01,0.01-0.02,0.03C832.91,311.23,832.91,311.23,832.91,311.21
			C832.91,311.22,832.91,311.22,832.91,311.21z"/>
		<path d="M846.95,316.73L846.95,316.73c-0.01,0.01-0.02,0.02-0.02,0.03c0-0.01-0.01-0.02-0.01-0.03
			C846.93,316.72,846.94,316.73,846.95,316.73z"/>
		<path d="M869.03,313.21c0,0,0.01-0.01,0.01-0.01l0,0C869.03,313.21,869.03,313.21,869.03,313.21
			C869.03,313.22,869.02,313.22,869.03,313.21c-0.01,0.01-0.01,0-0.01,0C869.02,313.21,869.02,313.21,869.03,313.21z"/>
		<path d="M832.51,311.21c-0.01,0.01-0.01,0.02-0.02,0.03c0-0.01,0-0.01-0.01-0.02c0.01-0.01,0.01-0.01,0.01-0.01
			C832.5,311.21,832.5,311.21,832.51,311.21z"/>
		<path d="M865.91,316.23c-0.01-0.01-0.01-0.01-0.01-0.01c0.01,0,0.01,0,0.01,0C865.91,316.22,865.91,316.22,865.91,316.23z"/>
		<path d="M873.15,313.04L873.15,313.04L873.15,313.04c-0.01-0.03-0.01-0.05-0.01-0.08c0.02,0.01,0.04,0.02,0.05,0.03
			C873.18,313.02,873.17,313.03,873.15,313.04z"/>
		<path d="M886.19,348.38c0.02,0.03,0.04,0.05,0.06,0.08c-0.02-0.01-0.05-0.02-0.07-0.03C886.18,348.41,886.19,348.4,886.19,348.38z
			"/>
		<path d="M824.17,310.92c-0.06,0.13-0.1,0.24-0.13,0.35c-0.02-0.01-0.04-0.02-0.05-0.03C823.59,311.01,823.91,311,824.17,310.92z"
			/>
		<path d="M902.33,346.12c0.06,0.03,0.11,0.06,0.17,0.09C902.45,346.18,902.39,346.15,902.33,346.12z"/>
		<path d="M902.65,346.27c0.03,0.01,0.06,0.02,0.09,0.03C902.71,346.29,902.68,346.28,902.65,346.27z"/>
		<path d="M861.42,295.36c-0.16-0.24-0.32-0.42-0.47-0.54c0.14,0.01,0.31,0.08,0.48,0.24C861.42,295.16,861.42,295.26,861.42,295.36
			z"/>
		<path d="M881.91,355.12c0,0.02,0,0.04,0,0.06c-0.02-0.03-0.05-0.04-0.07-0.07C881.86,355.11,881.88,355.11,881.91,355.12z"/>
		<path d="M884.92,355.21c-0.01,0.01-0.01,0.01-0.01,0.02c0-0.01,0-0.01,0-0.02C884.91,355.21,884.91,355.21,884.92,355.21z"/>
		<path d="M868.97,296.91l0.04-0.1c0.02,0.04,0.05,0.08,0.07,0.13C869.04,296.93,869,296.92,868.97,296.91z"/>
		<path d="M869,296.8L869,296.8c-0.07,0.01-0.13,0.02-0.2,0.03c-0.02-0.22-0.02-0.43-0.01-0.58
			C868.87,296.44,868.94,296.62,869,296.8z"/>
		<path d="M956.91,375.02L956.91,375.02C956.91,375.02,956.91,375.02,956.91,375.02c0,0.01,0,0.02,0,0.03
			c-0.01-0.01-0.01-0.01-0.02-0.01C956.89,375.03,956.9,375.02,956.91,375.02z"/>
		<path d="M930.43,428.07c-0.02,0.01-0.04,0.02-0.06,0.03c0.01-0.03,0.02-0.05,0.03-0.08C930.41,428.04,930.42,428.05,930.43,428.07
			z"/>
		<path d="M887.65,509c-0.01,0.07-0.01,0.14-0.02,0.22c-0.1-0.06-0.2-0.13-0.29-0.19C887.44,509.02,887.54,509.02,887.65,509z"/>
		<path d="M749.06,523.94c0,0.04-0.01,0.08-0.01,0.12c-0.03-0.01-0.07-0.03-0.1-0.04C748.99,524,749.02,523.97,749.06,523.94z"/>
		<path d="M759.41,543.14c0.01,0.02,0.01,0.04,0.01,0.06c-0.01,0.01-0.03,0.02-0.04,0.03C759.39,543.2,759.4,543.17,759.41,543.14z"
			/>
		<path d="M772.91,587.4c0.01,0,0.01,0.01,0.01,0.01c-0.01,0.01-0.01,0.01-0.01,0.01C772.91,587.41,772.91,587.4,772.91,587.4z"/>
		<path d="M889.67,578.21c0.01,0,0.02,0,0.03,0c-0.01,0.01-0.01,0.01-0.02,0.01C889.68,578.22,889.67,578.21,889.67,578.21z"/>
		<path d="M954.49,675.15c0.01,0.01,0.02,0.02,0.03,0.03c-0.01,0.01-0.02,0.01-0.02,0.01C954.5,675.18,954.49,675.17,954.49,675.15z
			"/>
		<path d="M955.91,615.21L955.91,615.21c0-0.01,0-0.02,0-0.03c0.01,0.01,0.01,0.02,0.01,0.03
			C955.91,615.21,955.91,615.21,955.91,615.21z"/>
		<path d="M937.63,525.78c0.03,0.03,0.06,0.04,0.09,0.06c-0.04,0.02-0.08,0.04-0.13,0.06C937.61,525.86,937.61,525.83,937.63,525.78
			z"/>
		<path d="M998.61,490.05c-0.02,0.11-0.04,0.22-0.06,0.32c-0.05-0.06-0.1-0.13-0.14-0.19C998.48,490.13,998.54,490.09,998.61,490.05
			z"/>
		<path d="M923.4,364.1c0.02,0.04,0.05,0.07,0.07,0.12c-0.03,0-0.06,0-0.09,0C923.39,364.18,923.4,364.14,923.4,364.1z"/>
		<path d="M945.21,402.41c0.1,0.13,0.2,0.24,0.29,0.35c-0.17,0.03-0.33,0.04-0.5,0.06C945.07,402.71,945.15,402.57,945.21,402.41z"
			/>
		<path d="M835.4,543.73c0.01,0.04,0.02,0.09,0.02,0.13c-0.07,0.01-0.13,0.01-0.19,0.02l0,0l0,0
			C835.29,543.83,835.35,543.78,835.4,543.73z"/>
		<polygon points="791.79,552.21 791.78,552.21 791.78,552.21 		"/>
		<path d="M751.08,507.53c-0.2,0.04-0.41,0.11-0.63,0.21c-0.01,0.01-0.01,0.02-0.02,0.03C750.37,507.33,750.76,507.47,751.08,507.53
			z"/>
		<path d="M770.85,586.67c0.02-0.02,0.04-0.04,0.06-0.06v0.01l0,0C770.91,586.63,770.85,586.67,770.85,586.67z"/>
		<path d="M909.6,743.78c0.04-0.01,0.09-0.02,0.13-0.03c0,0.01-0.01,0.01-0.01,0.02l0,0l0,0
			C909.72,743.76,909.6,743.77,909.6,743.78z"/>
	</g>
</g>
<g id="レイヤー_1_1_">
</g>
<g>
	<path class="st0" d="M608.54,144.85c-2.68,0,2.95,0.66,16.9,1.98c21.99,2.07,33,8.47,33,19.2c0,1.69-0.27,3.39-0.8,5.08
		c-12.07,5.27-30.32,13.08-54.72,23.43c-5.1,1.88-17.04,5.93-35.81,12.14c-15.56,4.9-26.29,8.94-32.19,12.14
		c-11.27,6.21-16.9,13.55-16.9,22.02c0,2.26,4.16,5.46,12.47,9.6c5.63,2.45,11.27,4.9,16.9,7.34
		c30.04-15.43,55.26-26.63,75.65-33.59c29.78-10.16,58.34-15.24,85.71-15.24c5.9,0,15.69,2.26,29.37,6.78
		c12.33,3.95,21.46,7.53,27.36,10.73c6.97,3.95,11.4,8.38,13.28,13.27l-3.22,6.21c-6.71,3.2-11,8.66-12.88,16.37
		c-2.96,12.24-4.7,18.73-5.23,19.48l1.21,4.52c0,0.38-0.27,1.65-0.8,3.81c-0.54,2.17-0.8,3.44-0.8,3.81l7.65,46.3
		c0,11.11-3.36,22.12-10.06,33.03c-7.51,11.86-17.3,20.51-29.37,25.97c-14.76-2.26-22.13-9.13-22.13-20.61
		c-5.37-2.07-8.05-4.71-8.05-7.9c0-1.13,0.26-2.17,0.8-3.11c-23.61-2.82-40.38-4.23-50.3-4.23c-8.05,0-18.78,1.13-32.19,3.39
		c-13.42,2.26-24.14,4.7-32.19,7.34c-6.98,2.82-17.57,6.58-31.79,11.29l-4.02-10.73l-8.05,2.54c-6.98,0-12.47-2.36-16.5-7.06
		c-6.44-7.9-9.8-11.95-10.06-12.14l8.45-85.25l-1.21-7.34c-11.27-3.76-16.9-10.26-16.9-19.48c0-7.71,7.38-16.66,22.13-26.82
		c11.8-7.15,23.6-14.3,35.41-21.45c12.33-7.9,28.3-20.61,47.88-38.11l-16.9-11.57C592.58,145.88,598.89,144.85,608.54,144.85z
		 M553.01,274.7c0,6.21-1.21,15.62-3.62,28.23l3.22,3.95l-7.24,25.69c0,1.13,0,2.82,0,5.08l-3.62,14.96
		c0.53,2.45,1.07,4.9,1.61,7.34c0.8,3.2,2.28,5.27,4.43,6.21l8.85-6.21l4.83,3.1l23.74-3.95c4.29-1.5,10.59-3.48,18.91-5.93
		c27.36-7.34,47.61-10.25,60.76-8.75l38.63,4.52c6.44-8.84,8.85-22.87,7.24-42.06l-2.01-25.69c0-0.56,0.13-1.5,0.4-2.82
		c0.26-1.31,0.4-2.26,0.4-2.82c0-2.26-0.4-5.65-1.21-10.16s-1.21-7.9-1.21-10.16c0-9.6-0.27-15.34-0.8-17.22
		c-1.61-7.34-6.31-11.01-14.08-11.01c-6.44,0-17.71,2.07-33.8,6.21c-13.15,3.39-24.01,6.68-32.59,9.88
		C604.65,250.99,580.38,261.53,553.01,274.7z M635.5,276.89l14.89,1.69c1.07,0,2.62-0.14,4.63-0.42c2.01-0.28,3.55-0.42,4.63-0.42
		c4.83,0,9.12,1.23,12.88,3.67c3.75,2.45,5.63,5.36,5.63,8.75l-0.4,4.23c-5.9,1.13-12.61,3.58-20.12,7.34
		c-11,5.46-17.04,8.47-18.11,9.03c-6.98,2.45-13.82,4.8-20.52,7.06c-8.32,3.01-13.95,6.4-16.9,10.16c0.53-1.31,2.68-3.53,6.44-6.63
		c3.75-3.11,6.17-5.69,7.24-7.76h-13.68c-7.24-1.88-14.49-3.67-21.73-5.36c-8.59-2.44-13.68-6.21-15.29-11.29l11.67,1.13
		c11.27-3.57,24.81-8.19,40.64-13.83c2.68-1.69,5.56-3.43,8.65-5.22C629.13,277.22,632.28,276.51,635.5,276.89z"/>
	<path class="st0" d="M368.7,416.56c-1.08,0,2.43,0.38,10.51,1.13c7.01,0.56,11.59,1.13,13.75,1.69c4.58,1.13,8.09,3.39,10.51,6.77
		l-1.62,5.93c-4.59,3.2-7.42,8.09-8.49,14.68c0,1.13,0,6.49,0,16.09c0,13.74-6.07,25.03-18.2,33.88l-4.85-1.98
		c-5.4,0.75-13.34,4.05-23.86,9.88c-2.43,1.32-9.7,3.67-21.83,7.06c-12.13,3.39-20.22,5.46-24.26,6.21l-0.4,58.15l2.02,13.83
		c-0.27-1.69-0.54,0.75-0.81,7.34c-0.27,4.14-1.35,9.98-3.24,17.5c-3.23,4.9-6.87,12.24-10.92,22.02
		c-1.89,0.38-5.33,1.46-10.31,3.25c-4.99,1.79-8.83,2.68-11.52,2.68c-1.35,0-2.57-0.1-3.64-0.28l-5.66-18.07
		c8.35-25.22,13.2-47.89,14.56-68.03c0.81-12.99,1.21-38.77,1.21-77.35c0-11.1-2.16-23.33-6.47-36.7c2.43,1.69,4.91,3.44,7.48,5.22
		c2.56,1.79,5.32,2.5,8.29,2.12c7.01,9.22,11.32,16,12.94,20.33c1.62,4.33,2.43,11.2,2.43,20.61c0,5.46,0.67,9.6,2.02,12.42
		c23.45-13.74,37.2-26.06,41.24-36.98c-7.55,1.32-11.46,1.98-11.73,1.98c-4.04,1.13-6.74,3.01-8.09,5.65h-1.21
		c-2.97,0.19-5.66-1.03-8.09-3.67c1.35-0.56,7.14-3.85,17.39-9.88c7.28-3.95,13.75-5.93,19.41-5.93c1.62,0,3.23,0.1,4.85,0.28
		c0.54-0.56,1.35-0.94,2.43-1.13c1.88,0.56,4.71,1.41,8.49,2.54l3.64-11.57c0.27-2.26-1.21-5.65-4.45-10.16
		c-9.7,0.94-16.72,3.48-21.03,7.62c-2.97,0-6.27-1.08-9.91-3.25c-3.64-2.16-6.54-3.43-8.69-3.81c7.28-4.33,18.33-10.07,33.16-17.22
		L368.7,416.56z M319.23,498.95l44.26-17.5l1.61-15.81l-2.01-5.36c-7.51,3.39-15.29,9.41-23.34,18.07
		C329.29,489.63,322.45,496.5,319.23,498.95z M429.89,426.6c2.41,0,4.29,0.38,5.63,1.13c1.34,0.75,4.69,5.13,10.06,13.13
		c5.36,8,8.38,12.84,9.05,14.54c0.67,1.69,1.01,5.27,1.01,10.73c0,3.77-1.35,11.86-4.02,24.28l-8.85,8.19h-2.01
		c-5.63,0.19-9.53-1.5-11.67-5.08c-1.35-2.63-1.75-6.21-1.21-10.73l6.04-40.93L429.89,426.6z M529.55,403.31
		c14.7,0,28.47,4.71,41.31,14.11l1.6,5.65l-3.61,10.16c-5.08,0.38-7.82,1.93-8.22,4.66c-0.4,2.73-0.87,6.92-1.4,12.56
		c-2.95,10.73-4.41,20.42-4.41,29.08c0,9.79,0.93,22.49,2.81,38.11c2.41,19.95,3.87,32.65,4.41,38.11c-0.27,1.69-0.4,3.58-0.4,5.65
		l9.63,35.85l-3.61,7.62c2.41,3.77,3.61,11.39,3.61,22.87l-5.61,16.66c-9.89,5.46-15.51,10.16-16.84,14.11
		c-1.34,0-2.68,0.09-4.01,0.28l-2.01,1.13c-0.8,0.75-1.74,1.98-2.81,3.67h-6.82c-2.41-3.95-7.09-8.19-14.04-12.7
		c-9.36-6.03-14.98-9.88-16.84-11.57c-3.48-3.95-9.22-9.41-17.24-16.37c1.06-0.75,1.6-1.6,1.6-2.54c0-1.5-1.6-3.76-4.81-6.78
		c-3.21-3.01-4.81-5.08-4.81-6.21l5.62-2.26c-0.8-0.56-1.34-1.6-1.61-3.11l0.4-0.85c0.8-0.56,1.74-0.94,2.81-1.13
		c11.76,7.15,25.27,13.17,40.5,18.07c8.02-1.88,11.89-5.46,11.63-10.73v-1.13l-10.43-113.76c-5.61,2.45-16.18,4.05-31.68,4.8
		c-14.44,0.75-24.33,2.64-29.68,5.65c-3.75-2.44-5.48-5.65-5.21-9.6v-2.54c11.49-5.27,19.78-15.9,24.87-31.9l-22.86-5.93l0.4-5.36
		c18.98-6.02,29.94-8.84,32.89-8.47l18.45,2.54l7.22,3.95c-1.07,2.26-3.81,4.19-8.22,5.79c-4.41,1.6-6.89,2.68-7.42,3.25
		c-8.29,4.9-16.31,14.96-24.06,30.21l30.48-5.08l14.44,1.41c0.26-34.62,0.4-52.79,0.4-54.48c0-2.07-0.14-3.57-0.4-4.52l-1.6-1.13
		c-2.41-0.38-4.81-0.56-7.22-0.56c-5.35,0-12.7,1.41-22.06,4.23c-9.36,2.82-14.58,4.23-15.64,4.23c-2.68,0-6.15-1.79-10.43-5.36
		c7.75-3.95,17.65-8.09,29.68-12.42C512.97,405.95,523.4,403.31,529.55,403.31z"/>
	<path class="st0" d="M625.79,635.11l7.65,3.11l6.84-1.13c8.05,0,13.01,2.17,14.89,6.49l-9.25,11.01
		c14.21,3.01,30.31,11.29,48.29,24.84c14.21,10.73,28.43,21.45,42.65,32.18c9.12,5.83,17.57,10.26,25.35,13.27
		c13.14,4.52,26.42,9.03,39.83,13.55c20.12,6.78,31.39,11.86,33.8,15.24l7.24,11.01c-10.2,6.21-18.25,9.32-24.14,9.32
		c-2.68,0-5.63-0.47-8.85-1.41h-2.01c-13.95,0.19-30.05-4.14-48.29-12.99c-14.76-6.96-28.04-15.34-39.84-25.12
		c-4.83-4.33-12.07-10.63-21.73-18.91c-5.9-4.33-14.22-11.1-24.95-20.33c-5.63-5.65-11.27-11.2-16.9-16.66
		c-8.05-7.15-15.03-11.29-20.92-12.42c-4.02,1.51-8.05,4.61-12.07,9.32c-3.22,3.95-6.31,7.81-9.25,11.57
		c-3.76,3.58-9.8,8.52-18.11,14.82c-8.32,6.31-14.08,11.15-17.3,14.54c-5.1,4.71-11.13,12.28-18.11,22.72
		c-6.98,10.44-12.74,17.93-17.3,22.44c-17.71,17.69-38.09,33.59-61.16,47.71l-13.28-3.95l-4.83-18.63l26.96-25.41
		c0.26,1.88,0.53,3.95,0.8,6.21c0.26,2.26,1.61,3.77,4.02,4.52c19.85-12.8,36.21-25.03,49.09-36.7
		c9.12-8.65,22.13-22.68,39.03-42.06c6.17-6.77,12.47-13.64,18.91-20.61c7.24-8.09,12.47-15.43,15.69-22.02l-11.67-0.56
		c0-3.01,2.55-5.74,7.65-8.19C620.69,638.88,624.44,636.62,625.79,635.11z M662.73,712.62c0.26,0,2.01-0.19,5.23-0.56
		c1.34,1.32,6.3,3.01,14.89,5.08c6.44,1.69,9.66,4.8,9.66,9.32c0,2.26-1.88,4.42-5.63,6.49c-3.76,2.07-5.77,3.67-6.04,4.8
		c-18.51-0.19-35.55,3.95-51.1,12.42c-3.49,0.56-12.27,4.09-26.36,10.59c-14.08,6.49-23.14,10.97-27.16,13.41
		c-6.17,3.95-10.86,8.28-14.08,12.99c2.42,0.56,4.96,0.85,7.65,0.85c4.56,0,15.83-2.82,33.8-8.47c15.55-4.89,26.69-8.75,33.4-11.57
		c5.09-2.44,13.01-5.27,23.74-8.47c2.41,0.75,8.98,1.79,19.72,3.11c8.31,1.13,14.49,3.11,18.51,5.93
		c-2.15,6.96-3.22,10.63-3.22,11.01c-2.15,3.95-5.9,6.4-11.27,7.34l-9.66-2.26c-20.39,8.47-44.8,27.76-73.23,57.87
		c16.09-5.46,39.56-10.54,70.42-15.24c4.56-0.56,11.13-1.69,19.72-3.39c-1.61-4.52-4.7-8.14-9.25-10.87
		c-4.56-2.73-9.25-5.32-14.08-7.76v-0.85v-1.41c0.8-0.56,2.55-0.94,5.23-1.13l2.41,0.56c19.58-0.94,38.76,3.95,57.54,14.68
		c19.04,11.29,28.57,23.71,28.57,37.26c0,5.65-2.01,10.54-6.04,14.68c-4.83,4.52-11,6.78-18.51,6.78c-2.68,0-5.77-0.28-9.25-0.85
		c-4.56-3.58-10.46-9.22-17.71-16.94c-2.15-4.33-6.58-10.35-13.28-18.07l-122.32,33.03c-1.35,2.07-5.1,3.48-11.27,4.23
		c-9.39,1.13-14.22,1.79-14.49,1.98c-1.34,0.19-5.9,2.35-13.68,6.49c-2.15-0.75-3.89-1.6-5.23-2.54c-1.35-0.94-2.96-4-4.83-9.17
		c-1.88-5.18-2.82-8.71-2.82-10.59c0-1.88,0.67-3.49,2.01-4.8c16.63-4.71,33.26-13.36,49.9-25.97
		c13.41-11.29,26.82-22.58,40.24-33.88c-15.56,3.77-38.36,10.16-68.4,19.2c-5.9-2.07-9.66-5.46-11.27-10.16
		c-1.61-4.7-3.09-9.22-4.43-13.55c15.02-5.83,32.45-15.15,52.31-27.95c21.99-13.92,36.35-25.59,43.05-35l-28.57-3.95
		c3.75-3.95,11.13-7.71,22.13-11.29c11-3.57,20.12-5.36,27.36-5.36c1.87,0,4.56,0.33,8.05,0.99
		C658.57,712.3,661.13,712.62,662.73,712.62z"/>
</g>
</svg>
