<svg xmlns="http://www.w3.org/2000/svg" viewBox="0 0 28 28.003">
  <path id="パス_45" data-name="パス 45" d="M27.685,25.229c-.115-.115-.608-.6-1.176-1.154-.792-.775-1.3-1.263-1.591-1.555l-.163-.166a13.212,13.212,0,0,1-2.528-3.9,17.63,17.63,0,0,1-1.38-5.447v-.022a10.188,10.188,0,0,0-.392-3.442,12.861,12.861,0,0,0-3.316-5.485A15.262,15.262,0,0,0,13.613,1.4,12.066,12.066,0,0,0,10.742.285,9.084,9.084,0,0,0,6.38.249,8.327,8.327,0,0,0,2.5,2.467l-.011.011A8.279,8.279,0,0,0,.4,5.889,8.51,8.51,0,0,0,.031,8.766a10.862,10.862,0,0,0,1.153,4.356,15,15,0,0,0,2.9,3.993A12.288,12.288,0,0,0,11.507,20.8a9.721,9.721,0,0,0,1.536.021h.016A14.846,14.846,0,0,1,18.6,22.13a13.647,13.647,0,0,1,3.776,2.6l.167.165c.292.292.78.8,1.555,1.591.556.569,1.038,1.061,1.154,1.177a1.038,1.038,0,0,0,1.614-.094l.625-.624h0l.1-.1A1.038,1.038,0,0,0,27.685,25.229Zm-17.6-6.6A10.967,10.967,0,0,1,5.41,15.786,13.362,13.362,0,0,1,3.079,12.7a10.14,10.14,0,0,1-.945-2.421A7.232,7.232,0,0,1,2.095,6.81,6.428,6.428,0,0,1,3.824,3.8h0A6.476,6.476,0,0,1,6.472,2.173a6.657,6.657,0,0,1,2.244-.287,8.988,8.988,0,0,1,3.6.963,13.108,13.108,0,0,1,3.49,2.538,10.392,10.392,0,0,1,3.143,6.272,7.265,7.265,0,0,1-.317,2.983,6.231,6.231,0,0,1-3.97,3.969A7.731,7.731,0,0,1,10.085,18.625ZM21.436,21.57a15.372,15.372,0,0,0-2.047-1.145,15.611,15.611,0,0,0-2.058-.779l-.29-.087.25-.171a7.971,7.971,0,0,0,2.2-2.251l.169-.258.09.3a18.775,18.775,0,0,0,.748,2.032,17.079,17.079,0,0,0,1.135,2.167Z" transform="translate(-0.024 -0.001)" />
</svg>
